<?xml version="1.0" standalone="no"?>
<!DOCTYPE svg PUBLIC "-//W3C//DTD SVG 20010904//EN"
 "http://www.w3.org/TR/2001/REC-SVG-20010904/DTD/svg10.dtd">
<svg version="1.0" xmlns="http://www.w3.org/2000/svg"
 width="1024.000000pt" height="1024.000000pt" viewBox="0 0 1024.000000 1024.000000"
 preserveAspectRatio="xMidYMid meet">

<g transform="translate(0.000000,1024.000000) scale(0.100000,-0.100000)"
fill="#000000" stroke="none">
<path d="M0 5120 l0 -5120 5120 0 5120 0 0 2034 0 2035 -56 121 c-30 67 -53
124 -51 126 4 4 35 -60 86 -176 20 -45 20 -44 20 3027 l1 3073 -1320 0 c-726
0 -1320 -3 -1320 -6 0 -3 29 -61 64 -128 57 -107 144 -294 226 -486 15 -36 51
-117 80 -180 56 -124 164 -376 240 -560 43 -105 93 -220 148 -340 31 -67 106
-247 132 -315 31 -79 86 -211 150 -360 29 -66 63 -150 76 -186 13 -36 47 -115
75 -175 41 -87 192 -447 215 -514 20 -57 -49 89 -92 195 -28 71 -76 182 -104
245 -29 63 -85 194 -125 290 -61 146 -167 402 -240 575 -9 22 -34 78 -55 125
-39 84 -110 251 -217 505 -30 72 -68 162 -85 200 -17 39 -45 106 -63 150 -18
44 -58 132 -88 195 -29 63 -62 133 -72 155 -44 101 -203 430 -249 515 -19 36
-37 73 -40 83 -5 16 -194 17 -3791 17 l-3785 0 0 -5120z m6714 4485 c13 -33
62 -150 111 -260 48 -110 100 -236 115 -280 32 -93 34 -98 255 -645 208 -514
327 -807 584 -1430 40 -96 101 -249 137 -340 36 -91 91 -228 124 -305 86 -204
240 -582 240 -590 0 -3 27 -68 60 -144 33 -77 76 -181 94 -233 19 -51 49 -124
66 -163 33 -73 260 -641 260 -651 0 -3 27 -69 61 -146 34 -77 74 -179 90 -225
29 -84 126 -329 259 -658 92 -227 151 -372 215 -535 29 -74 77 -196 107 -270
30 -74 72 -180 93 -235 21 -55 51 -126 67 -157 15 -32 28 -62 28 -67 0 -5 -15
-12 -33 -15 -18 -3 -68 -17 -112 -31 -44 -14 -85 -23 -93 -20 -7 2 -11 1 -8
-4 11 -17 -364 -148 -386 -135 -6 4 -8 3 -5 -3 8 -13 -30 -29 -203 -89 -74
-25 -175 -63 -225 -84 -49 -20 -126 -49 -170 -63 -44 -14 -114 -40 -155 -57
-257 -107 -504 -196 -532 -193 -10 2 -17 -2 -15 -8 3 -13 -132 -61 -156 -55
-9 2 -15 1 -12 -4 5 -8 -3 -13 -75 -40 -25 -10 -99 -38 -165 -64 -65 -25 -131
-46 -146 -46 -15 0 -32 -7 -39 -15 -8 -10 -21 -13 -33 -9 -14 4 -17 3 -12 -7
6 -9 2 -11 -14 -6 -13 3 -20 3 -17 -1 4 -3 -14 -14 -39 -24 -34 -13 -51 -15
-71 -8 -21 8 -31 7 -44 -5 -20 -18 -46 -20 -54 -2 -4 6 -4 2 -2 -11 3 -17 0
-22 -12 -20 -10 2 -20 7 -23 11 -4 5 -14 7 -23 5 -15 -3 -15 -6 5 -27 l23 -24
-22 5 c-12 4 -20 2 -17 -2 3 -5 1 -11 -5 -15 -5 -3 -10 3 -10 14 0 10 6 21 13
24 6 3 3 5 -9 4 -26 -1 -44 -19 -44 -44 0 -5 -14 -9 -31 -10 -17 -1 -37 -8
-45 -14 -8 -6 -21 -8 -30 -5 -10 4 -25 -1 -36 -11 -15 -14 -21 -14 -27 -4 -6
10 -10 9 -14 -3 -4 -9 -12 -16 -19 -16 -9 0 -8 3 2 10 11 7 11 10 2 10 -17 0
-55 -20 -64 -34 -5 -8 -8 -7 -8 2 0 6 -5 12 -10 12 -6 0 -9 -3 -9 -7 1 -5 1
-16 0 -26 -1 -17 -2 -17 -17 -3 -8 9 -20 16 -25 16 -6 0 -3 -7 5 -16 20 -19
20 -25 1 -18 -10 4 -14 1 -12 -7 2 -8 2 -11 0 -6 -3 4 -8 5 -13 2 -4 -3 -6 5
-3 17 4 22 4 22 -11 4 -8 -10 -12 -24 -9 -30 4 -6 0 -5 -9 2 -13 10 -17 10
-21 -1 -2 -7 -20 -13 -38 -12 -19 0 -40 -5 -47 -12 -7 -7 -20 -9 -29 -6 -12 5
-14 3 -8 -8 7 -11 6 -12 -6 -2 -13 10 -23 9 -52 -6 -20 -10 -37 -16 -37 -11 0
16 592 245 604 233 3 -4 6 -1 6 5 0 7 5 12 11 12 6 0 88 31 182 69 95 37 190
74 212 81 22 7 114 41 205 76 265 101 588 223 675 253 44 16 141 53 215 84 74
30 160 62 190 72 30 10 111 40 180 68 69 27 168 64 220 82 52 18 133 48 180
67 47 19 157 59 245 88 88 29 183 64 210 77 28 12 65 23 83 23 17 0 32 2 32 4
0 16 -90 260 -150 406 -39 96 -85 211 -101 255 -16 44 -40 105 -54 135 -13 30
-49 118 -78 195 -30 77 -77 196 -105 265 -97 242 -115 285 -133 330 -63 157
-106 265 -129 330 -40 109 -86 224 -109 267 -10 21 -30 72 -44 113 -14 41 -49
134 -77 205 -29 72 -64 162 -79 200 -15 39 -57 140 -94 225 -36 85 -84 205
-107 265 -23 61 -59 151 -80 200 -21 50 -50 119 -65 155 -115 284 -175 430
-188 460 -9 19 -47 114 -85 210 -102 256 -199 497 -227 560 -13 30 -38 89 -54
130 -16 41 -49 120 -72 175 -22 55 -54 132 -69 170 -16 39 -69 167 -120 285
-51 118 -104 247 -119 285 -15 39 -42 104 -59 145 -49 119 -157 396 -247 636
-46 122 -106 270 -133 330 -27 60 -53 120 -57 134 -7 21 -92 199 -100 208 -3
4 -25 -4 -230 -78 -77 -28 -216 -77 -310 -110 -392 -135 -686 -242 -900 -327
-49 -19 -162 -59 -250 -88 -88 -30 -181 -63 -207 -74 -25 -11 -129 -48 -230
-82 -294 -100 -396 -136 -508 -177 -288 -108 -391 -146 -460 -169 -41 -13
-129 -45 -195 -70 -66 -25 -163 -60 -215 -78 -256 -88 -620 -220 -775 -282
-22 -8 -83 -30 -135 -48 -52 -18 -122 -45 -155 -60 -33 -15 -127 -52 -210 -82
-405 -149 -555 -203 -563 -203 -5 0 -31 -11 -59 -24 -27 -14 -83 -36 -124 -49
-103 -34 -129 -48 -129 -67 0 -52 154 -486 285 -805 58 -143 130 -323 159
-400 30 -77 70 -179 90 -226 19 -48 53 -135 74 -195 22 -60 57 -152 79 -204
23 -52 44 -106 48 -120 7 -26 40 -117 106 -285 21 -55 57 -149 80 -210 22 -60
56 -148 74 -195 19 -47 57 -148 85 -225 28 -77 65 -176 84 -220 18 -44 46
-114 61 -155 34 -95 115 -305 201 -525 36 -93 81 -213 99 -265 19 -52 52 -140
75 -195 23 -55 48 -120 57 -145 8 -25 31 -83 50 -130 20 -47 48 -119 63 -160
15 -41 49 -127 75 -190 26 -63 54 -137 62 -164 8 -27 27 -77 43 -110 15 -34
53 -128 84 -211 31 -82 72 -190 91 -240 18 -49 52 -138 74 -197 42 -111 48
-134 31 -123 -5 3 -10 1 -10 -4 0 -6 6 -11 14 -11 7 0 19 -15 26 -32 6 -18 19
-50 28 -71 17 -42 12 -56 -11 -32 -19 19 -37 20 -37 1 0 -14 34 -29 60 -27 13
2 13 1 0 -8 -12 -9 -12 -11 3 -17 18 -7 24 -34 7 -34 -5 0 -10 4 -10 10 0 5
-8 6 -17 3 -14 -5 -14 -8 -2 -11 7 -3 23 -12 33 -21 14 -11 17 -12 11 -2 -5 9
-4 12 3 7 10 -6 52 -107 52 -125 0 -5 -8 -8 -17 -6 -10 2 -26 4 -35 4 -10 1
-22 10 -28 21 -19 35 -78 210 -71 210 3 0 1 4 -5 8 -6 4 -22 36 -37 72 -24 60
-24 66 -9 78 16 12 15 13 -2 10 -20 -3 -32 24 -153 347 -25 66 -49 129 -54
140 -5 11 -20 49 -33 85 -13 36 -40 106 -61 155 -20 50 -52 131 -70 180 -18
50 -108 279 -200 510 -92 231 -189 479 -215 550 -71 196 -137 370 -175 465
-19 47 -50 128 -69 180 -19 52 -57 152 -85 223 -49 124 -173 446 -342 887 -45
118 -113 296 -151 395 -105 275 -157 411 -193 510 -18 50 -72 189 -119 310
-48 121 -114 288 -146 370 -79 199 -201 550 -203 584 -2 31 21 44 180 101 60
20 164 59 233 85 69 26 148 56 175 66 28 10 111 42 185 70 74 28 175 64 223
80 48 16 125 44 170 63 45 19 136 56 202 81 66 26 147 57 180 70 33 13 114 42
180 66 66 23 167 60 225 81 58 22 168 62 245 89 77 28 235 86 350 129 116 44
293 109 395 145 280 100 427 153 515 185 44 16 120 41 169 56 49 14 119 39
156 55 37 15 127 48 201 73 74 24 258 90 409 147 151 56 356 130 455 165 300
104 571 202 750 269 94 36 178 63 189 62 13 -1 25 -20 40 -62z m-111 -165 c15
-12 36 -50 52 -93 15 -39 54 -133 86 -207 32 -75 74 -184 93 -242 19 -58 47
-131 61 -163 13 -31 31 -78 39 -104 19 -62 156 -405 271 -676 170 -402 223
-530 350 -845 142 -351 235 -580 269 -659 19 -46 40 -100 47 -120 6 -20 43
-108 81 -196 39 -88 84 -198 100 -245 17 -47 56 -143 88 -215 32 -71 70 -164
84 -205 13 -41 47 -124 74 -185 27 -60 57 -135 67 -165 10 -30 45 -116 77
-190 33 -74 74 -178 92 -230 19 -52 56 -149 83 -215 28 -66 58 -145 68 -175
10 -30 48 -129 85 -220 37 -91 89 -221 115 -290 25 -69 66 -172 90 -230 77
-186 196 -492 237 -609 21 -63 48 -131 58 -151 11 -21 29 -66 41 -101 26 -76
46 -122 106 -247 25 -51 44 -94 42 -95 -12 -8 -90 -31 -121 -37 -56 -11 -74 6
-59 53 7 21 17 37 22 37 5 0 9 12 9 26 l0 26 36 -27 c19 -15 37 -25 39 -23 3
2 -9 38 -25 78 -16 41 -42 111 -58 155 -17 44 -44 114 -62 155 -18 41 -60 149
-95 240 -35 91 -81 208 -103 260 -22 52 -59 142 -82 200 -22 58 -61 152 -85
210 -24 58 -69 170 -100 250 -31 80 -67 170 -80 200 -13 30 -37 91 -53 135
-28 78 -74 196 -145 380 -19 50 -63 158 -97 240 -34 83 -72 177 -85 210 -12
33 -46 114 -74 180 -28 65 -58 142 -67 170 -9 27 -37 97 -61 155 -25 58 -78
186 -118 285 -41 99 -115 279 -165 400 -51 121 -104 254 -120 295 -16 41 -56
143 -90 225 -33 83 -112 276 -174 430 -63 154 -155 377 -206 495 -100 233
-142 333 -200 480 -21 52 -59 147 -85 210 -26 63 -65 165 -85 225 -65 189
-105 296 -165 435 -32 74 -64 158 -70 185 l-12 50 -15 -35 c-9 -19 -27 -46
-41 -59 l-26 -23 21 -29 c27 -36 137 -300 238 -569 59 -156 358 -875 437
-1050 14 -30 42 -98 64 -150 21 -52 68 -167 104 -255 83 -201 191 -473 199
-501 5 -15 1 -24 -9 -28 -18 -7 -32 20 -109 219 -26 66 -58 143 -71 170 -12
28 -48 115 -79 195 -31 80 -62 159 -70 175 -41 86 -100 224 -146 340 -29 72
-72 173 -95 225 -40 88 -90 205 -203 470 -24 58 -68 170 -97 250 -28 80 -77
199 -107 265 -30 66 -66 148 -79 182 -21 54 -29 65 -62 78 -20 8 -45 15 -55
15 -9 0 -25 7 -35 14 -21 17 -51 11 -162 -32 -44 -17 -114 -40 -156 -51 -84
-23 -174 -58 -259 -101 -30 -15 -80 -35 -110 -45 -30 -9 -89 -32 -130 -50 -41
-18 -154 -63 -250 -100 -96 -38 -220 -86 -275 -107 -55 -22 -125 -48 -155 -58
-30 -10 -120 -44 -200 -75 -177 -69 -161 -63 -351 -129 -86 -30 -178 -64 -205
-77 -60 -27 -127 -31 -132 -8 -2 13 14 22 70 39 40 12 100 33 133 48 33 14
141 53 240 87 183 63 452 164 625 235 119 49 422 165 560 215 58 21 124 46
147 57 23 10 44 18 47 18 18 0 125 58 119 65 -5 4 -3 6 2 2 14 -7 324 102 443
156 12 6 40 27 60 46 79 75 111 86 155 51z m-133 -5 c0 -2 -13 -11 -30 -20
-16 -9 -30 -12 -30 -8 0 5 10 13 23 19 25 13 37 16 37 9z m-75 -35 c-3 -4 -55
-24 -117 -45 -62 -21 -160 -58 -218 -83 -128 -54 -207 -82 -232 -82 -10 0 -59
-16 -108 -35 -49 -19 -92 -35 -96 -35 -3 0 -69 -25 -147 -56 -169 -67 -338
-131 -502 -189 -66 -24 -165 -61 -220 -83 -55 -22 -165 -61 -245 -87 -80 -26
-199 -67 -265 -92 -121 -46 -362 -133 -600 -217 -71 -26 -173 -63 -225 -83
-52 -20 -162 -60 -245 -89 -349 -122 -501 -176 -685 -244 -107 -40 -233 -85
-280 -100 -105 -34 -306 -109 -425 -159 -49 -21 -115 -44 -145 -51 -30 -7 -61
-17 -68 -23 -7 -6 -12 -6 -12 0 0 12 162 88 220 103 25 7 53 16 63 21 10 5 22
7 27 4 4 -3 10 -1 12 5 1 5 14 11 28 12 14 2 27 6 30 9 8 9 195 83 275 109 39
13 75 26 80 30 6 5 51 20 100 34 50 14 124 40 165 59 41 19 137 55 212 81 76
25 177 61 225 80 108 43 299 112 333 121 14 4 39 13 55 20 56 24 120 47 239
86 65 22 155 56 200 75 45 20 158 62 251 94 94 31 233 80 310 108 77 28 154
54 170 58 17 3 80 25 140 49 61 23 148 56 195 73 192 68 228 81 300 111 104
42 353 135 485 181 61 21 121 42 135 48 14 5 51 17 84 27 32 9 87 30 121 46
35 16 67 29 72 29 6 0 61 16 123 36 62 20 122 38 133 40 11 2 21 5 23 7 7 7
33 4 29 -3z m-98 -275 c196 -62 285 -185 254 -352 -20 -110 -65 -178 -158
-242 -27 -18 -32 -19 -26 -5 5 14 3 15 -15 5 -22 -12 -161 -15 -199 -5 -43 12
-12 24 60 24 174 0 295 128 285 301 -3 51 -10 76 -30 106 -53 81 -200 150
-297 141 -92 -9 -203 -75 -238 -142 -23 -44 -33 -141 -22 -205 27 -148 176
-261 345 -261 35 0 65 -4 69 -10 17 -27 141 63 182 134 9 15 12 17 13 5 0 -19
-50 -97 -81 -126 -38 -35 -67 -41 -184 -36 -120 4 -157 12 -225 50 -62 35
-106 79 -143 143 -30 51 -32 61 -31 145 0 102 26 184 74 239 46 52 184 113
262 115 15 1 62 -10 105 -24z m-1 -114 c52 -24 91 -72 119 -147 25 -67 22 -99
-18 -166 -26 -43 -63 -88 -74 -88 -3 0 2 11 11 25 21 32 8 32 -35 0 -45 -33
-78 -49 -84 -43 -3 3 0 23 8 44 33 92 36 111 30 200 -6 91 -6 92 21 109 14 10
26 21 26 26 0 16 -26 10 -48 -11 -20 -19 -22 -31 -22 -115 0 -52 -4 -97 -10
-100 -5 -3 -10 -21 -10 -40 0 -42 -65 -115 -102 -115 -50 0 -63 47 -25 89 l22
25 -33 -23 c-35 -24 -49 -20 -52 14 -4 41 1 53 30 65 48 20 57 37 26 51 -20
10 -32 9 -53 0 -80 -37 -40 129 43 176 21 13 50 23 64 23 14 0 32 5 40 10 24
15 81 11 126 -9z m-594 -103 c-5 -114 -2 -172 14 -227 17 -61 63 -154 92 -187
21 -25 97 -65 157 -84 53 -17 69 -32 25 -24 -82 15 -175 59 -221 104 -40 39
-50 58 -80 150 -23 71 -35 97 -37 81 -4 -28 -39 -60 -64 -61 -24 0 -23 12 7
56 14 20 25 47 25 59 0 22 -3 21 -89 -20 -48 -24 -142 -60 -207 -81 -65 -20
-240 -86 -389 -146 -148 -60 -299 -120 -335 -133 -36 -12 -121 -45 -190 -73
-69 -27 -163 -62 -210 -77 -235 -76 -387 -133 -655 -245 -77 -32 -158 -63
-180 -70 -22 -6 -85 -29 -140 -50 -55 -20 -154 -57 -220 -81 -66 -23 -196 -71
-290 -107 -367 -139 -370 -139 -450 -120 l-64 15 41 -49 c43 -52 98 -186 134
-325 10 -40 21 -73 24 -73 3 0 14 17 25 37 27 49 52 81 76 93 15 9 18 8 12 -7
-15 -43 -93 -133 -114 -133 -5 0 -9 -9 -9 -19 0 -11 -30 -77 -66 -148 -74
-144 -88 -191 -104 -348 -6 -60 -14 -126 -18 -145 -5 -32 -6 -31 -13 25 -12
104 -10 230 5 271 7 22 32 78 55 126 62 131 71 165 77 268 5 85 3 104 -20 175
-15 44 -34 91 -43 104 -23 36 -135 147 -160 160 -13 7 -23 16 -23 21 0 16 93
11 114 -5 12 -9 42 -15 76 -15 60 0 158 33 420 140 69 28 193 73 275 101 83
28 182 66 222 84 40 18 97 41 127 49 31 9 115 41 188 70 73 29 196 77 273 106
77 29 158 60 181 71 82 37 145 59 211 74 66 15 160 50 548 206 99 40 223 87
275 106 52 18 111 40 130 48 19 8 94 35 165 61 154 54 248 96 292 130 17 13
36 24 40 24 12 0 58 49 72 78 6 12 13 22 14 22 1 0 1 -28 -1 -62z m-182 -27
c0 -5 -16 -12 -36 -16 -33 -6 -115 -39 -254 -102 -56 -26 -151 -55 -158 -49
-2 2 14 9 35 16 21 7 91 37 155 67 64 30 145 62 180 73 78 22 78 22 78 11z
m44 0 c4 -5 -3 -7 -14 -4 -23 6 -26 13 -6 13 8 0 17 -4 20 -9z m479 -103 c-13
-12 -25 -19 -29 -15 -10 10 16 37 34 37 13 0 12 -4 -5 -22z m-516 -90 c-3 -8
-6 -5 -6 6 -1 11 2 17 5 13 3 -3 4 -12 1 -19z m-30 -37 c-11 -31 -10 -34 16
-57 15 -13 40 -24 55 -24 30 0 102 -46 102 -66 0 -25 -65 -27 -137 -3 -37 12
-74 27 -80 32 -7 5 -13 29 -13 54 0 36 6 50 30 75 37 36 44 33 27 -11z m-732
-70 c-3 -6 -17 -11 -30 -11 -13 0 -25 -4 -27 -9 -3 -10 -217 -85 -224 -78 -4
3 152 68 256 106 28 10 35 7 25 -8z m1969 -7 c23 -9 20 -28 -11 -64 -16 -19
-22 -34 -16 -38 16 -11 240 -505 338 -747 32 -77 69 -162 83 -190 13 -27 33
-72 43 -100 31 -87 106 -277 144 -365 21 -47 50 -120 66 -163 16 -44 45 -116
63 -160 19 -45 64 -163 101 -262 36 -99 86 -220 110 -270 24 -49 65 -148 90
-220 26 -71 62 -159 80 -195 18 -36 38 -83 45 -105 13 -40 76 -187 130 -303
17 -34 30 -68 30 -75 0 -6 30 -84 66 -172 247 -603 255 -624 333 -850 16 -44
38 -99 50 -123 12 -23 35 -79 51 -122 17 -44 43 -116 60 -161 16 -44 35 -89
41 -101 6 -11 35 -89 64 -172 96 -273 125 -350 159 -426 19 -41 37 -88 40
-105 7 -28 4 -26 -42 25 l-49 54 -8 -32 c-8 -41 -34 -48 -100 -27 -27 8 -64
15 -81 15 -17 0 -37 7 -44 15 -14 17 -50 21 -50 5 0 -5 7 -13 16 -18 12 -7 0
-14 -48 -31 -62 -23 -95 -39 -154 -77 l-29 -19 22 34 c25 40 185 177 228 196
17 7 65 15 108 19 l77 6 0 -39 c0 -22 6 -44 15 -51 8 -7 12 -17 8 -23 -3 -6
-1 -7 6 -3 6 4 9 11 6 16 -3 5 1 13 10 17 13 8 12 14 -4 48 -32 67 -42 105
-28 105 8 0 9 3 1 8 -6 4 -19 39 -29 77 -23 92 -89 288 -127 379 -16 39 -43
107 -58 151 -16 44 -52 134 -81 200 -29 66 -69 165 -90 220 -75 201 -199 514
-264 670 -37 88 -89 214 -115 280 -86 213 -196 479 -208 502 -7 12 -36 84 -66
160 -29 76 -102 257 -161 403 -59 146 -125 312 -148 370 -22 58 -65 166 -95
240 -30 74 -81 200 -112 280 -32 80 -74 183 -95 230 -20 47 -68 157 -105 245
-160 377 -206 475 -231 490 -4 3 7 -38 26 -91 38 -105 45 -143 21 -111 -8 10
-23 57 -35 105 -12 48 -40 124 -62 169 l-42 81 -40 -29 c-24 -17 -53 -29 -72
-29 -70 0 -119 51 -68 71 14 5 23 12 21 15 -10 9 -78 -30 -78 -45 0 -8 7 -22
15 -31 14 -16 10 -18 -58 -24 -75 -7 -216 -34 -184 -35 26 -1 121 -66 153
-103 34 -41 122 -217 99 -198 -10 8 -36 40 -58 70 -22 30 -76 90 -119 132 -72
70 -87 80 -152 99 -39 11 -123 40 -187 64 -63 23 -151 50 -195 60 -110 23
-115 25 -108 37 14 23 160 -1 267 -43 229 -92 337 -85 574 34 l122 61 26 -29
c21 -25 27 -28 35 -15 9 15 -5 33 -34 43 -8 3 34 53 81 95 1 1 8 -1 17 -4z
m-178 -41 c-10 -10 -19 5 -10 18 6 11 8 11 12 0 2 -7 1 -15 -2 -18z m-1196
-58 c24 -8 65 -28 90 -43 l45 -27 -46 -3 c-33 -2 -63 4 -105 23 -75 34 -158
47 -170 27 -5 -8 -32 -16 -59 -20 -47 -5 -49 -4 -35 13 8 10 33 27 55 37 48
22 152 19 225 -7z m-970 -25 c-24 -16 -123 -51 -154 -55 -48 -6 -16 11 69 39
86 27 109 31 85 16z m-464 -53 c23 -20 26 -28 20 -59 -9 -48 -37 -72 -73 -63
-43 10 -53 24 -53 68 0 73 53 100 106 54z m-186 -97 c0 -10 -35 -27 -108 -52
-59 -20 -163 -57 -232 -83 -69 -26 -161 -58 -205 -72 -98 -30 -235 -81 -375
-138 -58 -23 -123 -48 -145 -55 -22 -6 -83 -28 -135 -47 -52 -20 -129 -48
-170 -63 -41 -16 -149 -52 -240 -80 -91 -28 -212 -67 -270 -85 -58 -18 -126
-38 -152 -45 -54 -14 -87 -8 -48 8 81 35 310 121 338 127 58 12 391 124 432
145 21 11 112 44 202 74 90 30 201 70 248 89 47 20 155 59 240 87 85 29 173
60 195 70 63 28 285 111 340 127 28 8 54 19 59 24 11 10 26 -8 26 -31z m2788
-49 c20 -11 57 -40 82 -66 25 -26 73 -67 107 -92 34 -24 75 -61 91 -81 39 -49
96 -165 166 -337 32 -77 93 -224 137 -326 43 -102 97 -233 119 -290 22 -57 50
-126 61 -154 11 -27 54 -131 94 -230 40 -99 86 -211 102 -250 16 -38 40 -101
53 -140 13 -38 39 -104 57 -145 19 -41 68 -158 108 -260 70 -176 162 -404 345
-845 45 -110 100 -245 122 -300 21 -55 63 -158 93 -230 30 -71 79 -193 109
-270 29 -77 82 -205 116 -285 50 -117 120 -296 120 -307 0 -2 -4 -3 -8 -3 -5
0 -13 12 -19 28 l-11 27 -1 -33 c-2 -56 -50 -253 -75 -308 -15 -33 -57 -87
-108 -141 -46 -48 -98 -110 -115 -138 -56 -92 -101 -180 -113 -222 -8 -25 -17
-40 -25 -37 -7 3 -24 -27 -44 -80 -27 -68 -43 -93 -82 -129 -27 -25 -49 -50
-49 -56 0 -6 -4 -10 -8 -8 -5 1 -22 -11 -38 -28 -16 -16 -89 -84 -161 -150
-73 -65 -130 -121 -128 -124 3 -2 16 6 30 19 32 30 42 21 15 -13 -26 -33 -82
-67 -126 -77 -43 -10 -43 -1 2 29 19 14 65 58 102 100 37 41 139 147 228 235
88 89 169 176 179 194 11 17 22 32 26 32 4 0 12 24 19 53 7 28 32 95 57 147
60 127 69 162 84 322 16 187 9 299 -29 423 -17 55 -33 120 -37 145 -9 54 -40
118 -111 227 -56 86 -99 123 -170 143 -58 17 -184 -9 -290 -61 -45 -21 -86
-39 -93 -39 -16 0 -51 -60 -51 -87 0 -35 -17 -36 -41 -3 -28 37 -50 38 -129 6
-52 -21 -59 -22 -51 -7 18 32 38 41 126 57 98 17 181 59 150 77 -10 5 -41 6
-73 1 -100 -13 -112 -12 -119 16 -3 14 -18 72 -33 130 -16 58 -31 130 -35 160
-3 30 -24 129 -45 219 -22 90 -40 166 -39 170 2 25 71 -234 103 -389 9 -42 29
-114 44 -160 l29 -85 49 -1 c27 -1 75 -11 108 -23 l59 -22 26 24 c31 29 83 57
107 57 16 0 16 -2 -2 -15 -13 -10 -1 -8 36 6 105 40 213 14 298 -72 97 -99
145 -191 196 -369 8 -30 25 -86 37 -125 19 -61 23 -99 27 -285 2 -118 7 -218
11 -223 9 -9 48 32 94 100 101 149 157 403 114 518 -8 22 -54 132 -102 245
-47 113 -111 268 -141 345 -61 155 -110 275 -191 470 -30 72 -105 256 -168
410 -62 154 -127 314 -143 355 -17 41 -70 174 -117 295 -48 121 -97 245 -110
275 -13 30 -49 118 -79 195 -30 77 -81 201 -112 275 -31 74 -91 221 -134 326
-74 182 -160 385 -255 609 -133 312 -145 333 -259 453 -80 84 -126 118 -226
168 -72 35 -89 51 -44 40 17 -5 23 -3 19 4 -11 17 43 11 83 -9z m-2702 -20
c-8 -12 -46 -21 -46 -11 0 5 8 11 18 13 29 8 33 7 28 -2z m-96 -33 c-14 -6
-54 -24 -89 -40 -35 -15 -66 -26 -68 -24 -4 4 92 52 137 69 28 10 45 6 20 -5z
m1668 -24 c31 -22 26 -63 -10 -83 -25 -15 -29 -14 -52 8 -28 27 -32 42 -16 72
13 23 47 25 78 3z m-569 -93 c8 -5 11 -16 8 -25 -4 -9 -2 -16 3 -16 5 0 11 -8
13 -17 2 -10 3 -6 2 9 -1 22 1 25 12 17 18 -16 16 -43 -6 -70 -18 -22 -20 -23
-38 -7 -10 9 -27 33 -37 52 -15 29 -17 38 -6 51 14 17 29 19 49 6z m-1623
-100 c-3 -5 -21 -12 -40 -15 -109 -21 -363 -107 -607 -206 -52 -21 -106 -41
-120 -43 -13 -3 -51 -15 -84 -27 -94 -34 -115 -39 -115 -30 0 18 47 39 190 86
185 60 321 109 387 140 28 13 56 24 62 24 5 0 30 9 56 20 25 11 56 22 68 24
178 38 212 42 203 27z m984 -36 c0 -19 -158 -96 -201 -98 -60 -3 -41 25 46 67
112 55 155 63 155 31z m961 -30 c63 -33 91 -58 130 -117 72 -111 73 -221 5
-364 -39 -83 -150 -204 -209 -229 -45 -19 -157 -19 -201 -1 -34 14 -90 84
-121 150 -23 51 -16 157 14 213 20 35 21 36 15 8 -4 -16 -11 -40 -15 -53 -20
-52 -10 -114 31 -197 45 -92 68 -110 139 -110 115 0 198 54 282 183 88 134
106 243 56 344 -33 65 -75 111 -130 140 -33 18 -60 22 -127 23 -74 0 -92 -4
-140 -28 -98 -50 -145 -108 -192 -237 -28 -75 -28 -75 -22 -25 17 138 121 268
250 309 63 20 187 15 235 -9z m-943 -77 c-19 -30 -111 -76 -165 -84 -39 -6
-43 -4 -43 14 0 16 18 27 93 55 50 19 100 35 111 36 17 1 17 -1 4 -21z m1810
-8 c14 -13 22 -32 22 -53 -1 -31 -1 -31 -15 -12 -8 11 -24 30 -36 42 -11 12
-18 27 -14 33 9 15 19 12 43 -10z m-197 -10 c11 -6 19 -21 19 -37 0 -14 8 -47
17 -73 l17 -48 -24 -21 c-31 -25 -38 -26 -62 -4 -33 30 -17 143 18 129 11 -4
14 -1 12 12 -5 26 -50 22 -64 -6 -10 -19 -12 -21 -18 -7 -16 43 39 79 85 55z
m-1411 -21 c0 -5 -26 -21 -57 -35 -32 -14 -85 -38 -118 -54 -33 -16 -81 -34
-107 -39 -27 -6 -87 -22 -134 -36 -83 -24 -178 -34 -158 -17 5 5 46 18 91 30
87 23 128 39 180 73 17 11 89 35 160 53 154 40 143 38 143 25z m1258 -75 c31
-21 30 -74 -2 -111 -30 -35 -46 -24 -17 13 27 34 27 62 -1 91 -25 26 -13 31
20 7z m399 -21 c-3 -10 -5 -4 -5 12 0 17 2 24 5 18 2 -7 2 -21 0 -30z m-447 3
c0 -27 -15 -42 -25 -26 -8 13 3 50 16 50 5 0 9 -11 9 -24z m410 1 c0 -14 -40
-37 -65 -37 -8 0 -15 5 -15 10 0 6 -1 13 -2 17 -2 4 11 11 27 14 48 10 55 10
55 -4z m540 5 c0 -21 -49 -48 -216 -118 -157 -67 -485 -197 -714 -284 -41 -15
-124 -47 -185 -70 -60 -23 -193 -73 -295 -110 -447 -164 -441 -163 -456 -139
-10 16 6 24 171 78 149 49 420 150 630 234 114 46 175 70 405 157 74 28 216
84 315 125 354 145 345 141 345 127z m-1096 -27 c3 -8 3 -22 -1 -31 -6 -15 -8
-15 -20 2 -7 10 -13 24 -13 31 0 18 27 16 34 -2z m-1058 -157 c2 -84 -2 -225
-9 -313 l-13 -160 -18 59 c-17 56 -17 68 -1 265 22 277 26 314 32 307 3 -3 7
-74 9 -158z m-98 130 c3 -17 -24 -31 -128 -65 -85 -27 -180 -41 -180 -26 0 11
111 60 195 86 93 29 108 30 113 5z m193 -101 c11 -20 25 -60 33 -88 16 -64 1
-162 -49 -324 -18 -60 -37 -123 -41 -140 l-8 -30 -4 32 c-2 18 6 90 18 159 11
70 20 163 19 206 -2 87 -22 238 -34 259 -5 8 4 3 19 -11 16 -14 37 -42 47 -63z
m-1566 48 c-16 -14 -43 -30 -60 -36 -16 -6 -47 -19 -68 -30 -22 -10 -44 -19
-51 -19 -6 0 -40 -25 -75 -55 -35 -31 -66 -54 -68 -51 -3 2 8 21 24 41 49 62
243 174 303 174 l25 0 -30 -24z m1370 -4 c3 -5 -5 -17 -17 -25 l-22 -16 22 0
c45 0 17 -82 -40 -119 -19 -11 -26 -21 -17 -21 8 0 30 11 49 25 19 14 35 25
37 25 2 0 3 -45 3 -101 0 -97 -11 -123 -25 -59 -8 38 -63 93 -120 120 -23 11
-50 29 -60 40 -18 20 -17 20 14 20 31 0 101 24 101 34 0 3 -19 -1 -41 -9 -23
-8 -50 -15 -60 -15 -37 0 -18 16 44 38 38 13 49 19 27 16 -19 -3 -53 -14 -76
-25 -45 -21 -64 -24 -64 -9 0 12 49 34 145 65 81 27 92 28 100 16z m819 -10
c10 -11 16 -24 15 -29 -2 -5 -14 4 -27 20 -26 31 -15 39 12 9z m-3147 -69 c89
-46 137 -115 174 -247 18 -67 19 -83 9 -128 -21 -86 -60 -156 -105 -186 -106
-72 -212 -94 -310 -66 -135 39 -199 95 -240 207 -25 71 -17 185 18 253 33 66
98 127 172 165 56 28 66 30 150 27 69 -3 100 -8 132 -25z m3096 -3 c9 -6 15
-14 12 -20 -10 -16 -36 -10 -54 13 -20 24 -47 20 -58 -9 -4 -10 -15 -27 -26
-38 -10 -11 -25 -32 -33 -47 -19 -37 -24 -35 -24 6 0 37 38 91 74 107 23 9 80
3 109 -12z m-1639 -5 c4 -12 2 -15 -9 -10 -8 3 -15 1 -15 -3 0 -5 5 -11 10
-13 6 -2 13 -19 16 -39 6 -32 4 -37 -18 -41 -13 -2 -29 -3 -36 0 -19 6 -14 39
8 45 11 3 20 10 20 16 0 14 -17 14 -25 1 -9 -15 -25 -2 -25 20 0 35 62 55 74
24z m-2072 -11 c11 -10 18 -30 18 -53 0 -42 -25 -70 -84 -95 -33 -14 -46 -15
-83 -5 -39 11 -42 15 -38 39 19 91 19 91 -7 91 -18 0 -29 -9 -41 -36 -10 -19
-14 -40 -11 -46 4 -7 2 -8 -4 -4 -18 11 -14 61 6 78 38 34 62 40 87 24 14 -9
31 -16 40 -16 18 0 20 -21 3 -38 -9 -9 -9 -12 0 -12 7 0 12 5 12 11 0 5 5 7
10 4 13 -8 13 -2 -2 30 -10 22 -9 28 3 36 23 14 71 10 91 -8z m2633 -13 c11
-10 63 -40 115 -68 150 -80 190 -121 204 -207 5 -35 4 -37 -7 -20 -25 40 -220
217 -314 285 -24 16 -43 33 -43 36 0 7 20 -5 45 -26z m1574 16 c16 -19 -4 -70
-35 -91 -22 -14 -24 -14 -24 0 0 9 7 18 15 21 8 4 15 14 14 23 0 10 -2 11 -6
4 -7 -19 -23 -16 -23 4 0 17 27 53 40 53 4 0 13 -6 19 -14z m-3039 -62 c0 -26
-5 -34 -27 -41 -39 -14 -121 16 -151 55 l-23 30 30 4 c22 3 37 -2 58 -22 40
-38 63 -44 63 -19 0 11 5 30 11 41 11 21 12 21 25 3 8 -10 14 -33 14 -51z
m1426 14 c30 -94 94 -214 148 -279 56 -68 91 -98 171 -144 75 -43 40 -41 -56
4 -93 43 -203 130 -230 183 -16 32 -25 71 -49 202 -18 102 -11 116 16 34z
m295 -255 c55 -52 115 -138 138 -198 6 -15 -144 130 -221 213 -62 68 -178 223
-178 238 0 4 44 -37 98 -92 53 -54 127 -127 163 -161z m2448 221 c126 -58 198
-153 271 -359 55 -156 52 -264 -9 -319 -12 -11 -21 -22 -21 -26 0 -4 27 -26
59 -49 145 -101 225 -235 386 -646 25 -66 68 -172 95 -235 27 -63 65 -155 85
-205 43 -106 84 -180 137 -252 21 -29 34 -53 29 -53 -17 0 -181 72 -214 94
-23 16 -38 39 -55 85 -12 35 -64 163 -116 285 -51 121 -100 239 -109 261 -78
196 -169 400 -201 447 -42 64 -94 110 -152 134 -37 16 -84 12 -84 -6 0 -11
152 -368 215 -505 21 -44 50 -114 65 -155 51 -139 133 -325 167 -378 18 -29
33 -54 33 -56 0 -3 -19 -2 -152 10 -66 5 -68 7 -68 32 0 66 -65 235 -265 687
-37 83 -87 202 -111 265 -25 63 -62 153 -84 200 -21 47 -65 156 -98 240 -33
85 -84 207 -114 270 -47 100 -60 119 -99 144 l-44 30 130 42 c162 53 240 58
324 18z m-3142 10 c-3 -3 -12 -4 -19 -1 -8 3 -5 6 6 6 11 1 17 -2 13 -5z
m1069 -99 c15 -81 -45 -243 -115 -309 -38 -36 -40 -22 -5 25 14 19 35 52 45
75 22 48 49 170 49 220 0 43 17 36 26 -11z m-1518 -7 c3 -38 -17 -64 -43 -54
-20 7 -19 55 2 78 23 26 37 18 41 -24z m452 30 c-98 -22 -173 -61 -236 -123
-51 -50 -63 -69 -74 -114 -36 -150 38 -289 191 -361 121 -56 249 -60 356 -9
34 16 48 32 70 76 40 84 42 148 4 258 -16 49 -29 91 -27 92 2 2 18 -29 37 -69
42 -91 44 -160 10 -262 -29 -84 -52 -109 -122 -131 -171 -53 -350 -15 -455 97
-115 124 -134 292 -46 414 57 78 187 144 282 143 l55 -1 -45 -10z m-2375 -121
c15 -40 44 -111 66 -159 21 -47 39 -93 39 -100 0 -8 4 -18 8 -23 5 -6 24 -50
42 -100 18 -49 46 -120 62 -158 16 -37 26 -73 22 -80 -4 -6 -4 -9 1 -5 9 9
103 -197 110 -242 0 -3 6 -14 12 -25 6 -12 46 -109 88 -215 42 -107 84 -213
94 -235 10 -22 21 -53 25 -70 4 -16 16 -49 27 -72 30 -65 193 -500 211 -563 5
-19 16 -48 23 -65 20 -44 93 -228 126 -320 17 -44 36 -93 43 -110 25 -54 94
-228 126 -315 17 -47 40 -109 51 -137 20 -55 25 -113 10 -113 -5 0 -19 30 -32
67 -12 38 -32 88 -45 113 -13 25 -48 115 -79 200 -31 85 -65 173 -75 196 -11
22 -20 45 -20 51 0 6 -11 35 -24 64 -13 30 -51 126 -84 214 -33 88 -79 207
-101 265 -22 58 -41 109 -41 114 0 6 -24 71 -54 145 -30 75 -65 165 -79 201
-14 36 -51 130 -82 210 -31 80 -75 192 -97 250 -22 58 -51 128 -64 157 -13 28
-24 56 -24 62 0 6 -27 75 -61 153 -127 298 -279 696 -279 733 0 25 33 -28 55
-88z m135 39 c6 -8 20 -41 30 -73 24 -74 103 -281 118 -310 7 -12 25 -57 41
-100 16 -43 54 -135 85 -205 30 -71 69 -165 85 -210 16 -46 51 -135 79 -198
27 -63 57 -141 66 -173 9 -32 37 -106 63 -165 25 -59 59 -145 75 -192 17 -47
50 -134 75 -195 25 -60 67 -168 93 -240 45 -123 110 -289 219 -560 27 -66 66
-165 86 -219 21 -54 44 -111 51 -125 17 -31 18 -67 3 -77 -18 -11 -36 17 -69
111 -35 100 -77 210 -187 485 -41 102 -90 228 -109 280 -55 152 -130 346 -240
625 -56 143 -130 332 -163 420 -64 170 -122 317 -191 480 -23 55 -59 145 -80
200 -20 55 -61 161 -89 235 -67 174 -84 256 -41 206z m4753 -76 c24 -47 92
-170 149 -275 58 -104 152 -274 209 -377 56 -104 105 -188 109 -188 3 0 14 -6
24 -13 15 -11 16 -17 5 -39 -10 -24 -6 -36 49 -135 33 -59 94 -177 136 -261
42 -84 92 -170 111 -191 19 -21 35 -40 35 -42 0 -2 -61 -5 -135 -6 -119 -2
-135 0 -135 14 0 9 7 24 16 34 12 13 15 28 10 52 -8 45 -141 313 -158 319 -15
6 -187 -18 -196 -27 -8 -8 64 -228 93 -285 13 -25 39 -61 59 -80 l36 -34 -117
-18 c-65 -9 -122 -17 -126 -17 -4 -1 -5 26 -1 58 5 44 2 72 -11 111 -10 29
-38 136 -64 238 -47 189 -50 195 -103 207 -18 3 -37 20 -54 47 -29 46 -23 58
34 58 17 0 32 3 32 6 0 3 -18 85 -41 182 -22 97 -60 272 -85 387 -38 185 -46
213 -69 233 -14 12 -32 22 -39 22 -8 0 -19 7 -26 15 -10 13 -9 15 11 15 13 0
62 18 109 39 47 21 86 37 87 37 0 -1 21 -39 46 -86z m-3129 19 c14 -11 26 -29
26 -39 0 -17 -43 -60 -60 -60 -15 0 -60 53 -60 71 0 23 26 49 49 49 10 0 30
-9 45 -21z m1219 -219 c34 -16 90 -36 124 -42 35 -6 61 -14 58 -17 -40 -40
-264 56 -329 141 -41 55 -31 54 29 0 31 -28 84 -65 118 -82z m1453 105 c-9
-13 -16 -37 -16 -53 0 -33 68 -217 200 -542 50 -124 124 -313 165 -420 124
-331 151 -396 180 -434 20 -26 24 -37 14 -40 -28 -8 -188 -36 -208 -36 -24 0
-28 22 -6 40 26 22 17 72 -41 215 -30 76 -80 204 -109 284 -72 199 -75 204
-99 198 -49 -12 -157 -45 -162 -50 -10 -9 53 -186 147 -421 64 -160 97 -228
120 -252 24 -25 29 -35 18 -38 -41 -14 -181 -46 -203 -46 -30 0 -35 24 -10 52
16 16 15 24 -16 110 -18 51 -62 165 -97 253 -36 88 -82 207 -102 265 -21 58
-55 143 -75 189 -20 47 -60 143 -87 215 -87 228 -109 273 -145 301 -19 14 -34
30 -34 34 0 5 17 12 37 16 20 3 70 20 111 36 51 21 78 27 85 20 7 -7 5 -16 -6
-29 -9 -10 -17 -26 -17 -34 0 -16 123 -343 180 -482 l31 -73 57 23 c31 12 74
26 95 29 22 4 37 13 37 21 0 24 -161 430 -203 511 -9 16 -30 36 -47 43 -16 7
-30 15 -30 19 0 9 211 100 234 101 17 0 17 -1 2 -25z m-3372 -61 c-32 -130
-134 -296 -205 -335 -17 -9 -18 -7 -9 16 l10 27 -23 -19 c-13 -10 -38 -35 -57
-56 -47 -54 -103 -81 -152 -73 -35 6 -38 4 -38 -16 1 -13 8 -41 16 -63 9 -22
29 -78 45 -124 16 -47 35 -92 43 -100 14 -16 66 -142 66 -159 0 -13 84 -231
155 -402 31 -74 98 -245 150 -380 52 -135 132 -339 178 -455 46 -115 100 -255
121 -310 21 -55 44 -115 52 -133 8 -19 57 -149 110 -290 52 -141 111 -297 131
-347 19 -49 46 -121 60 -160 14 -38 31 -83 39 -100 7 -16 26 -66 42 -110 16
-44 44 -118 61 -165 18 -47 50 -134 72 -195 21 -60 45 -121 53 -135 7 -14 44
-104 81 -200 37 -96 76 -195 87 -220 11 -25 29 -67 39 -95 10 -27 25 -70 34
-94 9 -24 14 -46 11 -48 -3 -3 1 -11 9 -19 7 -7 25 -46 40 -86 16 -40 32 -78
37 -85 5 -6 10 -25 10 -42 1 -17 5 -31 11 -31 5 0 7 -11 5 -25 -4 -17 -1 -25
8 -25 8 0 14 -8 14 -17 0 -10 7 -31 16 -48 9 -16 17 -53 19 -81 1 -28 4 -55 8
-60 3 -5 -6 -10 -19 -10 -18 -2 -23 3 -22 20 2 21 -26 100 -63 182 -11 23 -19
48 -19 57 0 12 -46 127 -100 252 -5 11 -16 42 -26 68 -9 26 -21 50 -25 53 -5
3 -9 16 -9 28 0 23 -24 91 -60 171 -23 52 -86 213 -95 245 -4 14 -23 59 -42
100 -19 41 -48 109 -63 150 -27 73 -43 112 -96 250 -43 108 -69 179 -113 299
-23 63 -48 128 -56 145 -8 17 -32 81 -54 141 -21 61 -54 144 -71 185 -18 41
-49 125 -70 185 -35 101 -182 480 -214 550 -8 17 -17 41 -21 55 -4 14 -29 79
-55 145 -26 66 -68 176 -95 245 -26 69 -58 150 -71 180 -12 30 -53 132 -89
225 -37 94 -73 181 -80 195 -17 33 -137 355 -185 495 -20 61 -44 124 -53 142
-10 18 -18 54 -20 82 -1 27 -5 47 -10 44 -27 -16 -94 74 -70 98 15 15 39 1 70
-44 44 -65 56 -74 100 -73 40 1 103 41 103 66 0 6 4 9 9 6 5 -4 11 0 14 6 3
10 7 10 20 0 17 -14 25 -12 66 22 120 99 158 153 216 304 16 39 30 70 32 68 2
-2 -4 -34 -13 -72z m1490 -60 c20 -19 20 -28 2 -43 -11 -9 -15 -7 -19 10 -9
33 -56 22 -85 -21 -13 -19 -28 -37 -34 -39 -15 -5 -4 75 12 94 17 21 104 20
124 -1z m-218 -49 c2 -38 2 -39 -9 -12 -6 15 -17 27 -24 27 -7 0 -13 7 -13 16
0 10 7 14 21 12 18 -2 22 -11 25 -43z m5560 -120 c15 -33 45 -98 67 -145 50
-109 108 -261 105 -272 -2 -5 -21 35 -42 89 -21 54 -76 183 -122 286 -46 104
-84 192 -83 195 1 7 28 -48 75 -153z m-5616 121 c0 -3 -4 -8 -10 -11 -5 -3
-10 -1 -10 4 0 6 5 11 10 11 6 0 10 -2 10 -4z m-271 -148 c14 -39 6 -48 -20
-22 -12 13 -17 27 -13 37 9 26 21 21 33 -15z m961 -22 c0 -18 -116 -67 -440
-186 -58 -21 -134 -51 -170 -65 -36 -15 -139 -53 -230 -85 -91 -32 -300 -106
-465 -164 -165 -59 -336 -116 -380 -127 -44 -11 -88 -22 -97 -25 -10 -3 -18
-1 -18 5 0 6 19 15 43 21 23 7 175 61 337 121 162 60 381 138 485 174 105 36
241 87 304 112 63 25 168 65 235 88 67 24 177 66 246 93 138 55 150 58 150 38z
m718 -1 c70 -21 149 -95 195 -182 92 -176 309 -728 327 -835 30 -170 -51 -304
-217 -358 -37 -12 -96 -36 -131 -52 -35 -16 -66 -27 -69 -24 -4 3 0 17 7 31
10 19 11 34 3 67 -21 80 -240 651 -427 1113 -35 84 -62 122 -112 152 -16 9
-16 12 -4 16 8 3 65 23 125 46 124 46 211 53 303 26z m-3065 -44 c-3 -11 -11
-22 -18 -24 -10 -4 -10 0 -1 19 13 29 26 32 19 5z m1245 -8 c-3 -30 -25 -42
-34 -19 -9 22 2 46 21 46 12 0 15 -8 13 -27z m-133 -25 c10 -52 2 -151 -12
-156 -10 -3 -13 18 -13 82 0 85 -6 100 -30 71 -15 -18 -30 -19 -30 -2 0 21 22
37 52 37 23 0 28 -5 33 -32z m-1145 -18 c0 -5 -4 -10 -10 -10 -5 0 -10 5 -10
10 0 6 5 10 10 10 6 0 10 -4 10 -10z m64 -1 c3 -3 -6 -6 -19 -7 -14 -1 -25 3
-25 8 0 10 35 9 44 -1z m2519 -54 c-22 -46 -47 25 311 -880 68 -170 129 -327
135 -348 8 -22 28 -50 52 -69 l39 -31 -53 -22 c-28 -12 -74 -36 -102 -53 -44
-29 -51 -30 -64 -17 -12 12 -12 18 -3 27 7 7 12 24 12 39 0 25 -58 184 -165
454 -236 595 -295 747 -295 754 0 15 -51 71 -64 71 -7 0 -17 5 -24 12 -9 9 16
23 106 59 64 26 120 45 124 43 4 -3 0 -20 -9 -39z m-1605 23 c-3 -7 -10 -13
-17 -13 -7 0 -18 -8 -25 -17 -16 -22 -26 -23 -26 -4 0 17 37 46 58 46 8 0 12
-6 10 -12z m-747 -112 c-16 -43 -35 -103 -41 -134 -17 -91 -32 -134 -42 -120
-28 45 35 281 96 357 24 30 17 -26 -13 -103z m5674 64 c20 -39 19 -57 -4 -70
-44 -23 -91 2 -91 50 0 34 17 50 52 50 20 0 31 -8 43 -30z m-4890 -7 c3 -16 9
-40 14 -55 7 -20 5 -30 -8 -41 -19 -17 -71 -28 -71 -16 0 5 5 9 12 9 16 0 48
31 48 47 0 16 -32 17 -48 1 -16 -16 -28 -2 -14 15 7 8 9 17 5 21 -4 4 0 4 10
0 13 -5 17 -1 17 20 0 35 28 34 35 -1z m235 2 c-7 -8 -19 -15 -26 -15 -8 0
-11 6 -8 15 4 8 15 15 26 15 17 0 18 -3 8 -15z m237 0 c25 -26 3 -32 -66 -20
-40 7 -42 9 -26 22 25 18 73 17 92 -2z m141 0 c-10 -11 -68 -14 -68 -5 0 6 3
9 8 7 4 -3 16 -1 27 3 18 7 41 3 33 -5z m570 -175 c71 -30 126 -95 177 -204
93 -198 97 -308 17 -458 -2 -4 28 -27 66 -53 39 -25 82 -61 96 -80 32 -42 104
-186 140 -280 36 -97 59 -131 103 -153 l38 -20 -40 -23 c-22 -13 -65 -40 -95
-61 l-54 -36 -12 41 c-6 23 -23 71 -38 106 -15 35 -39 96 -53 135 -32 90 -75
175 -107 213 -54 64 -197 117 -212 78 -3 -8 38 -124 92 -257 129 -320 130
-323 159 -342 14 -9 25 -20 25 -25 0 -5 -24 -24 -52 -41 -29 -18 -72 -48 -96
-67 -50 -41 -67 -35 -52 16 13 46 1 93 -64 259 -107 270 -220 559 -266 682
-27 69 -75 190 -108 270 -56 137 -62 147 -107 177 -30 21 -42 35 -34 38 8 3
46 16 84 29 39 13 108 38 155 56 98 36 155 36 238 0z m3800 -33 c17 -47 15
-65 -7 -77 -34 -18 -69 -12 -87 14 -24 38 -15 67 26 82 51 18 55 17 68 -19z
m-4338 -117 c-17 -40 -9 -69 80 -285 43 -104 85 -212 94 -239 9 -26 48 -124
86 -216 39 -92 70 -171 70 -175 0 -4 32 -86 71 -183 39 -98 80 -202 90 -232
11 -30 34 -70 52 -88 l32 -34 -40 -32 c-22 -17 -60 -50 -84 -74 -44 -42 -45
-43 -64 -24 -15 16 -17 23 -8 41 14 26 10 44 -50 206 -51 139 -197 506 -204
513 -8 9 -185 -67 -185 -79 0 -9 140 -386 217 -584 33 -85 56 -129 80 -152 18
-17 33 -35 33 -40 -1 -4 -23 -26 -50 -48 -27 -22 -66 -62 -87 -89 l-38 -50 -6
70 c-4 38 -18 103 -32 144 -32 96 -250 655 -355 911 -45 108 -94 232 -110 275
-39 104 -99 234 -109 234 -5 0 -24 10 -42 21 l-35 21 35 15 c52 23 213 83 222
83 4 0 7 -11 7 -25 0 -14 -4 -25 -10 -25 -23 0 3 -95 75 -270 15 -36 47 -119
70 -185 24 -66 48 -132 54 -147 l10 -27 73 33 c40 18 85 38 100 44 33 13 35 4
-51 231 -92 241 -134 331 -175 372 l-37 36 58 22 c32 12 83 35 113 51 59 30
69 26 50 -20z m5952 -180 c42 -102 55 -139 44 -129 -9 9 -136 320 -136 333 1
11 17 -25 92 -204z m-1578 71 c27 -60 33 -101 17 -101 -13 0 -23 16 -43 75
-35 97 -15 118 26 26z m124 -166 c16 -34 15 -45 -5 -67 -26 -29 -70 -23 -88
12 -21 41 -19 49 18 65 46 20 62 18 75 -10z m-5220 -1 c37 -9 73 -22 79 -28
11 -9 133 -355 133 -374 0 -4 -17 18 -37 48 -39 59 -149 171 -198 201 -46 29
-91 25 -127 -12 -29 -29 -30 -33 -26 -92 3 -39 15 -81 31 -112 39 -76 159
-220 345 -415 210 -218 263 -278 316 -360 49 -74 126 -250 185 -424 48 -139
53 -216 21 -341 -26 -102 -51 -143 -167 -273 -52 -59 -103 -122 -111 -139 -9
-18 -19 -33 -22 -33 -4 0 -14 26 -22 58 -9 31 -47 145 -86 252 -39 107 -89
258 -112 335 -22 77 -56 189 -75 250 -19 60 -32 111 -30 113 15 15 185 -308
220 -418 50 -156 151 -279 204 -250 36 19 60 61 76 134 14 64 15 79 1 143 -17
83 -104 319 -154 418 -70 140 -113 193 -422 510 -119 122 -233 247 -254 279
-88 133 -121 305 -76 404 27 60 66 107 103 126 41 20 121 20 205 0z m6776
-144 c15 -36 34 -78 41 -95 16 -38 29 -82 22 -75 -5 5 -102 226 -114 260 -14
38 26 -32 51 -90z m-1519 -77 c21 -49 57 -135 80 -193 61 -152 160 -392 200
-485 54 -126 281 -704 300 -765 10 -30 44 -120 75 -200 188 -472 293 -739 330
-840 23 -63 53 -142 65 -175 13 -33 40 -118 60 -190 20 -71 52 -174 70 -227
19 -54 31 -100 26 -102 -14 -9 -98 184 -150 344 -53 164 -146 432 -180 515
-11 28 -44 115 -75 195 -30 80 -64 168 -75 195 -59 146 -197 499 -217 555 -30
87 -118 311 -194 495 -33 83 -77 191 -96 240 -19 50 -50 126 -69 170 -123 294
-150 360 -181 448 -39 114 -38 107 -20 107 8 0 30 -38 51 -87z m1619 -173 l7
-25 -15 25 c-17 28 -21 50 -7 35 5 -6 12 -21 15 -35z m-2999 -100 c8 -14 -16
-78 -32 -84 -7 -3 -15 -1 -18 4 -16 25 -145 -7 -145 -36 0 -19 42 -28 95 -19
62 9 151 -11 170 -38 22 -32 19 -103 -7 -144 -25 -41 -105 -83 -159 -83 -47 0
-129 28 -129 45 0 25 34 40 107 46 81 6 122 31 109 64 -5 14 -19 17 -84 15
-116 -4 -121 -3 -158 34 -42 42 -45 85 -8 133 40 53 87 72 176 73 42 0 80 -5
83 -10z m329 -51 c33 -26 33 -34 0 -64 -33 -31 -46 -31 -80 -2 l-28 24 23 31
c26 37 48 40 85 11z m2796 -138 c17 -40 30 -75 27 -77 -3 -3 -44 88 -65 146
-15 43 11 -5 38 -69z m-3582 24 c70 -28 92 -100 47 -153 -14 -17 -25 -32 -25
-34 0 -3 31 -27 69 -54 l69 -49 -46 -25 -47 -26 -47 43 c-39 36 -54 43 -88 43
-49 0 -52 -16 -15 -75 28 -46 30 -55 12 -55 -7 0 -30 -9 -52 -20 -22 -11 -40
-20 -41 -20 -1 0 -5 12 -9 28 -14 59 -99 249 -127 285 -17 21 -27 41 -23 45
15 15 213 80 247 81 21 1 55 -6 76 -14z m3651 -190 c0 -5 -8 6 -19 25 -11 19
-19 40 -19 45 0 6 8 -6 19 -25 11 -19 19 -39 19 -45z m-2620 54 c62 -22 70
-88 17 -143 -44 -48 -94 -50 -137 -7 -51 51 -33 131 34 150 44 13 49 13 86 0z
m449 -10 c56 -19 76 -73 47 -129 -29 -56 -80 -65 -141 -24 -34 23 -44 26 -94
20 -83 -10 -120 -22 -185 -62 -55 -32 -58 -33 -35 -9 35 38 102 69 192 90 55
13 75 22 71 32 -11 28 8 64 40 78 39 17 65 18 105 4z m-1963 -32 c41 -20 65
-51 95 -128 28 -69 31 -82 20 -113 -13 -42 -86 -110 -143 -137 -88 -39 -188
-14 -251 64 -41 51 -49 144 -17 209 22 45 92 101 147 118 33 9 119 2 149 -13z
m4174 -102 c0 -5 -6 1 -14 15 -8 14 -14 30 -14 35 0 6 6 -1 14 -15 8 -14 14
-29 14 -35z m-4767 -238 c33 -95 44 -117 57 -112 9 4 36 13 60 22 25 8 61 26
82 38 l37 24 6 -50 c4 -27 7 -52 7 -56 0 -4 -39 -22 -88 -39 -48 -18 -109 -41
-135 -53 -46 -20 -48 -20 -48 -1 0 37 -107 285 -137 315 l-29 30 71 20 70 20
3 -20 c2 -11 22 -73 44 -138z m4828 98 c0 -5 -5 -3 -10 5 -5 8 -10 20 -10 25
0 6 5 3 10 -5 5 -8 10 -19 10 -25z m-2820 5 c30 -3 48 -9 40 -12 -24 -10 -165
-50 -170 -49 -3 0 -6 10 -6 22 -1 12 -7 25 -15 30 -11 6 -11 9 1 13 8 2 22 7
30 10 8 2 26 2 40 -1 14 -3 50 -9 80 -13z m91 -12 c11 -21 11 -22 -4 -9 -10 7
-17 17 -17 22 0 15 9 10 21 -13z m-261 -65 c0 -19 -17 -16 -23 5 -2 9 -8 26
-12 37 -6 16 -3 15 14 -5 11 -14 21 -31 21 -37z m-92 11 c0 -14 5 -30 12 -34
15 -9 -25 -40 -53 -40 -19 0 -52 63 -42 80 7 11 66 29 76 24 4 -2 7 -15 7 -30z
m-2058 9 c0 -27 109 -300 132 -328 l19 -25 -26 -10 c-14 -5 -32 -10 -39 -10
-7 0 -21 -6 -31 -14 -18 -13 -21 -10 -40 53 -27 85 -93 238 -117 273 -22 32
-23 38 0 38 9 1 33 9 52 20 44 24 50 24 50 3z m-4193 -35 c33 -56 83 -188 191
-503 11 -33 37 -105 57 -160 20 -55 90 -255 155 -445 133 -389 277 -797 285
-810 3 -5 37 -96 75 -202 38 -106 98 -274 135 -373 36 -98 64 -186 63 -193 -5
-22 -203 496 -379 988 -38 107 -89 249 -113 315 -24 66 -76 215 -114 330 -38
116 -113 329 -167 475 -53 146 -111 308 -129 360 -18 52 -45 118 -60 147 -22
45 -35 103 -22 103 2 0 13 -15 23 -32z m6100 -25 c14 -36 14 -38 -7 -55 -26
-21 -50 -23 -50 -5 0 6 -7 25 -15 41 -9 16 -14 30 -13 31 13 7 55 24 61 24 4
1 15 -16 24 -36z m-142 -55 c14 -41 9 -50 -32 -62 -19 -6 -24 -2 -34 35 -12
38 -11 43 6 56 29 20 45 12 60 -29z m-1857 -291 c18 -12 32 -25 32 -28 0 -4
-20 -14 -44 -23 -25 -9 -50 -24 -56 -32 -19 -22 -28 -17 -32 17 -5 51 -25 56
-108 24 l-72 -28 5 -37 c5 -36 4 -38 -42 -59 -26 -11 -50 -21 -54 -21 -3 0 0
15 8 34 10 24 15 84 16 212 l1 179 41 21 40 21 117 -129 c64 -71 131 -139 148
-151z m1702 248 c21 -35 21 -37 5 -55 -26 -29 -44 -24 -61 15 -11 26 -12 41
-4 55 16 30 36 24 60 -15z m-5762 -95 c0 -8 -8 3 -19 25 -10 22 -18 47 -18 55
1 19 38 -60 37 -80z m5610 58 c18 -18 14 -53 -9 -74 -20 -18 -21 -18 -40 6
-23 31 -24 49 -1 66 21 17 35 17 50 2z m3796 -14 c3 -8 2 -12 -4 -9 -6 3 -10
10 -10 16 0 14 7 11 14 -7z m-5875 -68 c32 -51 28 -64 -24 -77 -25 -6 -47 -15
-50 -19 -6 -9 41 -153 65 -200 10 -20 26 -42 34 -49 19 -16 21 -31 4 -31 -7 0
-37 -11 -65 -25 -41 -18 -53 -21 -53 -10 0 15 -77 262 -86 276 -7 12 -73 -17
-101 -43 l-22 -20 -11 43 c-6 24 -13 49 -15 56 -2 7 18 19 48 28 29 9 95 36
147 60 52 24 98 43 102 44 3 1 16 -14 27 -33z m3457 -21 c3 -8 -1 -23 -8 -34
-14 -20 -15 -20 -36 9 -12 16 -22 32 -22 35 0 12 61 4 66 -10z m2474 -60 c0
-5 -5 -3 -10 5 -5 8 -10 20 -10 25 0 6 5 3 10 -5 5 -8 10 -19 10 -25z m-2596
-17 c7 -33 -7 -44 -28 -22 -19 18 -20 36 -4 52 14 14 23 6 32 -30z m-918 -17
c17 -10 34 -28 37 -40 6 -25 -27 -71 -51 -71 -49 1 -92 86 -60 118 17 17 38
15 74 -7z m3581 -128 c-5 -4 -57 111 -56 123 0 5 14 -20 30 -55 16 -35 28 -66
26 -68z m-4157 52 c86 -21 269 -110 349 -171 35 -26 93 -84 128 -129 212 -268
267 -648 132 -915 -124 -247 -340 -420 -609 -486 -85 -22 -128 -26 -230 -26
-164 0 -274 24 -411 90 -90 44 -115 62 -186 134 -99 99 -175 200 -214 284 -63
136 -88 402 -54 578 26 139 118 302 226 402 123 113 332 216 505 249 95 18
267 13 364 -10z m1055 -3 c28 -15 62 -45 80 -70 35 -52 37 -98 9 -252 -12 -67
-17 -160 -19 -320 -2 -194 -5 -236 -24 -308 -38 -145 -89 -248 -165 -330 -59
-65 -243 -202 -269 -202 -19 0 2 21 80 78 130 96 249 249 293 376 27 75 37
200 20 250 -14 44 -59 98 -114 138 -44 32 -56 29 -56 -12 0 -36 -16 -47 -29
-21 -26 48 1 91 57 91 28 0 42 -8 73 -42 45 -49 89 -131 89 -164 0 -13 5 -26
10 -29 7 -4 10 65 10 199 0 160 5 233 21 336 18 109 19 136 9 161 -31 73 -97
119 -172 119 -50 0 -148 -43 -208 -91 -22 -18 -43 -30 -46 -27 -9 10 63 76
109 100 106 57 166 62 242 20z m528 -58 c8 -8 -18 -34 -35 -34 -7 0 -20 5 -28
10 -13 9 -13 11 0 20 17 11 53 13 63 4z m-3787 -67 c23 -20 25 -26 15 -45 -6
-12 -25 -29 -41 -37 -24 -13 -33 -13 -50 -3 -32 20 -36 55 -9 84 28 30 50 30
85 1z m1124 -117 c0 -16 -18 -30 -41 -30 -16 0 -10 32 8 46 21 15 33 9 33 -16z
m-2328 3 c24 -21 23 -44 -3 -77 -33 -42 -51 -47 -92 -28 -42 20 -46 41 -17 90
16 27 26 32 57 32 20 0 45 -7 55 -17z m2202 -53 c8 -27 7 -35 -9 -46 -26 -20
-29 -18 -48 21 -21 45 -21 44 6 55 32 13 40 8 51 -30z m2211 -87 c25 -47 44
-90 43 -94 -2 -5 -27 37 -57 93 -30 55 -49 98 -43 94 6 -3 31 -45 57 -93z
m-2351 38 c19 -33 19 -34 1 -47 -28 -21 -51 -17 -63 11 -15 33 -15 48 0 63 19
19 40 10 62 -27z m-155 -28 c20 -39 17 -67 -9 -80 -23 -11 -26 -10 -42 20 -23
43 -22 52 5 65 31 15 35 14 46 -5z m-1975 -153 c10 -39 22 -73 27 -76 14 -8
85 -162 129 -279 21 -55 51 -135 68 -177 16 -43 28 -78 27 -78 -2 0 10 -30 26
-66 17 -36 28 -71 26 -77 -2 -7 3 -18 10 -26 8 -8 12 -22 10 -33 -3 -10 -2
-16 3 -13 4 2 20 -23 34 -58 15 -34 32 -72 38 -84 11 -22 5 -53 -10 -53 -5 0
-21 30 -36 68 -16 37 -38 92 -51 122 -12 30 -28 71 -35 90 -6 19 -16 44 -21
55 -25 60 -43 107 -64 165 -12 36 -41 107 -64 158 -22 51 -41 100 -41 108 0 8
-6 25 -14 37 -13 20 -116 311 -116 326 0 3 8 -4 18 -17 10 -13 26 -54 36 -92z
m150 76 c22 -42 19 -63 -16 -89 -27 -20 -28 -20 -48 -2 -13 12 -20 28 -17 41
3 16 0 21 -11 17 -10 -4 -13 0 -10 13 2 16 58 54 78 54 3 0 14 -15 24 -34z
m1700 1 c11 -30 4 -41 -31 -52 -17 -5 -23 -2 -23 9 0 9 -9 21 -20 28 -27 17
-25 24 8 36 40 15 55 10 66 -21z m-3485 -39 c12 -34 21 -67 20 -72 0 -6 -8 12
-18 39 -27 76 -33 95 -28 95 3 0 15 -28 26 -62z m2952 36 c25 -23 26 -103 2
-133 -31 -38 -113 -45 -145 -13 -45 44 -30 139 25 162 31 14 95 5 118 -16z
m390 -41 c12 -33 7 -49 -19 -55 -16 -4 -23 1 -33 24 -11 27 -10 32 6 44 27 20
34 18 46 -13z m3833 -22 c58 -29 146 -110 146 -134 0 -26 -13 -20 -35 16 -23
36 -156 112 -216 122 -50 9 -153 -12 -213 -42 -62 -32 -145 -114 -174 -174
-17 -34 -24 -72 -28 -155 -6 -88 -12 -120 -34 -169 -30 -66 -128 -202 -181
-251 -134 -124 -366 -258 -499 -289 -82 -19 -268 -40 -276 -32 -16 16 72 36
166 38 157 4 570 244 668 389 79 116 104 188 120 340 17 168 113 295 263 350
79 29 224 25 293 -9z m-3974 -21 c-12 -16 -26 -30 -31 -30 -5 0 -9 -8 -9 -19
0 -13 -13 -23 -47 -34 -26 -9 -49 -15 -50 -13 -2 2 14 15 34 30 21 15 30 26
21 24 -34 -6 -11 17 42 44 30 15 56 28 58 28 2 0 -6 -13 -18 -30z m3330 4 c0
-9 18 -49 40 -89 47 -85 53 -115 11 -58 -41 56 -83 142 -76 153 10 16 25 12
25 -6z m-3338 -56 c-7 -7 -12 -8 -12 -2 0 6 3 14 7 17 3 4 9 5 12 2 2 -3 -1
-11 -7 -17z m-1347 -50 c21 -47 83 -209 105 -278 4 -14 21 -55 38 -91 16 -36
33 -80 36 -97 4 -17 23 -67 42 -112 19 -45 34 -85 34 -90 0 -4 18 -46 39 -92
21 -45 44 -102 50 -125 6 -23 42 -115 80 -205 38 -90 76 -188 84 -218 9 -30
39 -111 68 -180 28 -69 61 -156 74 -195 13 -38 37 -101 53 -140 16 -38 32 -83
36 -100 4 -16 16 -49 27 -72 11 -24 46 -121 77 -217 41 -122 53 -171 42 -164
-20 13 -84 193 -74 209 4 7 3 9 -3 6 -16 -10 -60 114 -47 134 4 8 3 9 -4 5 -7
-4 -13 -2 -13 3 -3 20 -5 26 -25 66 -12 22 -34 76 -49 120 -15 44 -31 85 -35
90 -4 6 -17 42 -30 80 -12 39 -33 97 -47 130 -14 33 -31 76 -38 95 -98 255
-296 759 -321 815 -82 187 -244 619 -244 651 0 40 20 27 45 -28z m1912 0 c28
-27 29 -49 3 -73 -20 -18 -21 -18 -52 13 -28 28 -30 34 -20 57 14 31 38 32 69
3z m-786 -60 c-3 -21 -6 -26 -9 -15 -3 17 3 47 11 47 2 0 1 -15 -2 -32z m-111
0 c-25 -5 -76 -17 -115 -28 -74 -20 -91 -20 -53 1 35 19 118 37 168 37 l45 0
-45 -10z m-225 -32 c31 -20 31 -46 4 -103 -20 -41 -60 -73 -92 -73 -22 0 -67
40 -78 68 -36 95 75 167 166 108z m430 -213 c21 -49 51 -115 67 -148 46 -92
108 -245 108 -265 0 -26 -30 -34 -46 -13 -7 10 -11 24 -9 31 2 6 0 12 -6 12
-6 0 -3 10 5 22 9 13 12 26 7 32 -13 16 -171 398 -171 413 0 15 13 -10 45 -84z
m-2900 -37 c14 -43 24 -80 22 -83 -5 -4 -57 144 -57 161 0 19 9 -2 35 -78z
m3365 72 c0 -4 -23 -10 -50 -14 -41 -5 -56 -13 -84 -45 -19 -21 -40 -56 -47
-78 -20 -67 0 -111 92 -205 43 -44 79 -82 79 -84 0 -2 10 -13 23 -23 21 -19
21 -20 1 -10 -12 6 -67 55 -124 109 l-103 99 6 62 c6 57 34 130 61 156 24 24
67 40 106 40 22 0 40 -3 40 -7z m138 1 c-36 -14 -41 -28 -48 -159 l-6 -115 -2
133 -2 132 -35 0 c-19 0 -35 4 -35 9 0 4 35 9 78 9 62 1 72 -1 50 -9z m3428
-37 c-20 -20 -47 -60 -60 -87 -36 -77 -105 -164 -195 -245 -46 -41 -105 -103
-131 -137 -76 -95 -289 -220 -426 -248 -131 -27 -445 -58 -471 -46 -34 15 -36
14 -13 -9 29 -29 27 -84 -5 -115 -31 -32 -61 -31 -114 3 -38 24 -42 30 -37 56
16 78 56 100 165 91 49 -5 118 -1 191 8 63 9 144 19 180 23 112 11 201 40 295
94 122 71 161 101 198 152 46 65 77 96 137 141 102 74 115 89 218 252 30 47
94 117 100 110 3 -3 -12 -22 -32 -43z m-532 -89 c-7 -29 -64 -97 -73 -88 -3 3
4 12 15 20 11 7 29 32 39 54 21 48 28 52 19 14z m-3678 -115 c-3 -18 -5 -36
-5 -40 -1 -5 -8 -8 -17 -8 -13 0 -14 3 -4 15 6 8 9 19 5 25 -9 14 1 40 15 40
5 0 8 -14 6 -32z m122 4 c-5 -23 -28 -27 -28 -4 0 10 7 19 15 19 9 0 15 -7 13
-15z m3458 -1 c-17 -27 -276 -202 -276 -186 0 2 -21 -5 -46 -15 -88 -38 -60
-14 53 46 156 83 251 143 262 167 1 5 5 6 8 3 3 -2 2 -9 -1 -15z m-6207 -121
c0 -17 -23 33 -33 71 -3 13 3 6 14 -16 11 -22 19 -47 19 -55z m3660 61 c8 -6
-15 -10 -65 -13 -87 -5 -98 -3 -63 11 30 12 110 13 128 2z m-3 -117 c18 -15
18 -15 -3 -9 -50 14 -98 -29 -71 -63 11 -13 11 -14 -1 -7 -10 6 -22 -2 -42
-26 -28 -33 -28 -34 -29 -9 0 39 37 109 62 120 35 13 62 12 84 -6z m-3601 -84
c14 -40 23 -75 21 -77 -2 -2 -14 26 -26 64 -13 37 -25 75 -28 83 -3 8 -2 12 1
9 4 -3 18 -39 32 -79z m7455 40 c-19 -11 -41 -19 -47 -20 -23 0 -160 -72 -196
-101 -35 -29 -62 -75 -70 -119 -3 -14 -8 -41 -12 -61 -8 -43 32 -175 71 -235
29 -45 111 -105 169 -124 22 -7 65 -13 96 -13 151 0 267 83 290 208 22 118 -5
228 -72 293 -67 66 -217 118 -260 91 -12 -7 -12 -9 1 -10 10 0 8 -3 -5 -9 -27
-12 -43 -12 -25 0 13 9 13 10 0 10 -17 0 -51 -19 -35 -20 6 0 2 -5 -8 -11 -17
-10 -37 -5 -37 10 0 8 49 31 120 56 56 20 107 14 186 -24 148 -70 207 -176
185 -335 -20 -140 -74 -222 -183 -274 -124 -61 -248 -49 -363 33 -67 47 -87
70 -126 145 -22 41 -24 57 -24 175 0 126 1 131 29 175 38 59 74 98 111 118 48
25 167 60 205 61 l35 0 -35 -19z m-4336 -19 c38 -16 28 -23 -15 -11 -18 6 -60
10 -92 10 -40 0 -56 3 -51 11 8 14 117 7 158 -10z m275 -148 c30 -34 56 -61
58 -59 2 2 -4 27 -13 56 -14 43 -15 53 -4 60 10 6 19 -6 33 -48 10 -31 35 -80
54 -109 39 -59 152 -154 223 -187 25 -12 56 -29 70 -39 l25 -18 -32 4 c-49 8
-131 49 -198 100 -86 65 -336 336 -335 363 1 9 10 -1 119 -123z m-657 92 c10
-10 -47 -61 -94 -85 -58 -29 -106 -74 -125 -117 -26 -62 -34 -171 -20 -271 11
-78 11 -90 0 -79 -36 35 -40 257 -7 359 18 56 89 126 157 156 26 12 47 26 47
31 0 11 32 15 42 6z m228 -18 c-1 -7 -7 -25 -13 -41 l-13 -30 -22 36 c-12 19
-22 37 -22 40 0 3 16 5 35 6 22 1 35 -3 35 -11z m-150 -11 c-8 -7 -35 -16 -60
-20 l-45 -6 35 20 c19 10 46 19 60 20 21 0 22 -2 10 -14z m4477 -33 c-9 -10
-29 -33 -45 -50 -16 -18 -32 -33 -36 -33 -15 0 27 56 57 78 38 27 46 28 24 5z
m-7198 -152 c12 -35 20 -65 18 -67 -4 -5 -77 188 -77 202 1 14 34 -63 59 -135z
m1666 52 c17 -36 24 -65 20 -81 -3 -14 -2 -21 4 -18 12 8 25 -30 15 -45 -4 -7
-3 -9 4 -6 6 4 22 -25 40 -75 18 -51 26 -85 20 -89 -6 -4 -1 -14 10 -25 20
-18 62 -104 62 -125 0 -6 -4 -7 -10 -4 -15 9 -12 -2 6 -19 11 -12 12 -21 5
-33 -9 -17 -10 -17 -17 2 -7 21 -88 236 -119 315 -9 25 -28 74 -42 110 -14 36
-32 80 -40 98 -14 31 -11 52 7 52 5 0 21 -26 35 -57z m5845 27 c11 -11 20 -22
20 -25 0 -10 -233 5 -246 16 -36 30 -9 38 114 32 75 -3 96 -7 112 -23z m-4461
-103 c-2 -83 -2 -87 -9 -42 -12 74 -12 147 0 140 6 -3 9 -46 9 -98z m4240 16
c70 -68 111 -125 111 -153 0 -8 -10 0 -21 18 -12 17 -23 32 -25 32 -8 0 25
-56 40 -69 9 -8 16 -23 16 -35 0 -11 4 -27 9 -35 13 -21 23 4 18 47 -2 20 -2
29 0 19 6 -25 24 -30 58 -17 41 15 42 6 4 -35 -26 -26 -49 -39 -97 -51 -59
-15 -67 -15 -100 0 -21 9 -48 25 -61 35 l-25 19 39 36 c21 20 41 36 46 36 11
0 32 -68 24 -80 -10 -16 23 -24 40 -10 19 16 19 46 1 53 -7 3 -29 36 -48 74
-19 38 -52 92 -72 120 -34 48 -42 63 -32 63 3 0 36 -30 75 -67z m131 13 c45
-29 69 -78 50 -101 -7 -8 -17 -15 -23 -15 -10 0 -129 125 -136 143 -7 18 70
-1 109 -27z m149 12 c5 -13 7 -27 4 -31 -6 -10 -54 0 -102 21 l-36 16 40 7
c74 12 85 10 94 -13z m-352 -32 c28 -21 73 -89 73 -108 -1 -17 -82 -78 -103
-78 -9 0 -21 9 -27 19 -11 22 -11 21 54 56 22 12 42 27 44 34 4 13 -33 12
-112 -2 -15 -3 -9 45 7 55 6 4 8 8 2 8 -5 0 -3 5 5 10 12 8 12 10 1 10 -11 0
-9 5 5 21 13 15 20 17 23 7 2 -7 15 -21 28 -32z m-363 -20 c-3 -21 -8 -35 -11
-32 -2 2 -1 20 3 40 3 21 8 35 11 32 2 -2 1 -20 -3 -40z m734 -33 c32 -43 2
-99 -45 -87 -12 3 -30 1 -41 -5 -27 -15 -41 5 -16 23 14 10 16 21 10 56 l-7
43 43 -7 c24 -4 49 -14 56 -23z m-2693 -21 c-4 -4 -116 -52 -122 -52 -2 0 -3
11 -3 24 0 20 8 26 53 38 35 11 56 12 65 5 7 -5 10 -12 7 -15z m-4825 -103
c17 -45 29 -83 27 -86 -4 -3 -67 150 -67 163 0 17 13 -8 40 -77z m2900 66 c59
-8 76 -18 157 -96 162 -156 299 -211 556 -224 102 -5 150 -3 212 9 89 18 254
32 243 21 -8 -8 -295 -52 -383 -58 -69 -4 -207 7 -280 24 -75 17 -231 93 -273
133 -168 158 -192 171 -312 170 -107 -1 -161 -16 -209 -59 -49 -45 -92 -140
-99 -220 -4 -54 0 -73 33 -154 52 -130 100 -197 247 -343 119 -117 137 -130
198 -143 158 -32 194 -46 295 -114 52 -35 67 -41 115 -41 30 0 82 -7 115 -14
33 -8 85 -17 115 -21 30 -4 111 -20 180 -37 119 -28 132 -30 270 -23 114 5
142 3 133 -6 -20 -20 -298 -18 -413 3 -52 9 -149 24 -215 33 -66 10 -144 21
-174 26 -30 5 -57 7 -59 4 -3 -2 6 -19 20 -37 42 -55 108 -202 123 -274 19
-87 19 -115 0 -140 -8 -10 -14 -23 -15 -29 0 -6 3 -6 8 1 18 27 179 86 217 80
11 -2 28 1 38 6 11 5 17 5 17 -2 0 -5 8 -10 18 -9 10 0 12 3 5 6 -7 2 -13 10
-13 16 0 5 3 7 7 4 3 -4 20 2 37 12 17 11 67 30 111 44 104 33 333 120 384
146 21 11 84 37 138 56 54 20 143 54 198 75 55 22 190 73 300 114 110 41 391
147 625 236 234 89 472 179 530 200 229 82 692 239 740 250 27 7 50 16 50 22
0 5 -9 21 -20 35 -24 31 -25 49 -4 57 11 4 29 -8 56 -39 22 -24 59 -54 84 -64
61 -27 56 -41 -16 -41 -46 0 -108 -15 -267 -66 -343 -108 -596 -196 -833 -289
-215 -84 -479 -182 -615 -227 -66 -22 -165 -59 -220 -83 -55 -23 -138 -55
-185 -70 -47 -16 -128 -46 -180 -68 -52 -22 -164 -64 -248 -93 -83 -30 -169
-62 -190 -72 -82 -41 -422 -154 -422 -140 0 4 -7 5 -15 2 -8 -3 -13 -11 -12
-17 1 -6 -7 -13 -18 -15 -11 -2 -49 -18 -85 -34 -36 -17 -89 -39 -119 -49 -29
-10 -67 -27 -85 -38 -17 -10 -42 -22 -55 -26 l-23 -7 18 31 c10 17 21 31 24
31 8 0 4 109 -8 182 -12 77 -88 247 -129 291 -15 15 -23 27 -17 27 5 0 -6 9
-24 20 -18 11 -30 24 -27 29 6 11 -84 68 -140 88 -70 25 -296 71 -430 88 -206
25 -235 36 -306 114 -63 68 -116 147 -106 158 4 3 19 -9 34 -27 72 -86 121
-134 159 -156 46 -27 184 -60 295 -70 l73 -7 -101 110 c-173 189 -242 318
-243 453 0 104 50 233 109 283 46 38 162 69 231 61 14 -2 45 -6 70 -9z m1956
-50 c39 -68 101 -223 115 -291 12 -59 5 -174 -10 -174 -21 0 -106 109 -139
178 -20 42 -38 80 -40 83 -4 8 43 27 93 37 l39 8 -22 22 c-30 30 -48 28 -89
-13 -19 -19 -36 -35 -38 -35 -2 0 -8 30 -15 67 -6 36 -18 79 -26 95 -18 35
-13 45 29 57 62 18 74 14 103 -34z m-898 -18 c12 -1 22 -6 22 -11 0 -10 -204
1 -265 15 -33 7 132 4 243 -4z m3989 -25 c11 -27 11 -32 0 -32 -33 0 -47 -34
-42 -98 3 -38 2 -62 -4 -62 -20 0 -96 48 -113 71 -10 13 -20 43 -24 65 -6 41
-5 42 37 67 32 19 54 25 88 23 40 -2 46 -6 58 -34z m-1143 -31 c-7 -8 -15 6
-19 35 l-4 29 14 -30 c7 -16 11 -32 9 -34z m-707 -7 c12 -19 14 -30 6 -43 -14
-21 -23 -20 -57 7 -28 22 -28 23 -11 42 24 27 41 25 62 -6z m-2212 -5 c36 0
44 -3 30 -8 -25 -10 -124 -3 -145 10 -11 7 -3 9 25 5 22 -3 63 -6 90 -7z
m1843 -59 c15 -34 9 -50 -18 -50 -25 0 -33 -15 -21 -39 7 -13 18 -17 31 -14
16 4 20 0 20 -21 0 -14 -2 -26 -4 -26 -2 0 -11 -3 -19 -6 -18 -6 -47 61 -47
109 0 31 23 77 38 77 4 0 13 -13 20 -30z m-619 -16 c7 -19 27 -51 44 -71 30
-34 33 -35 84 -30 51 5 71 -4 37 -17 -38 -14 -110 -6 -133 15 -38 36 -78 139
-53 139 4 0 14 -16 21 -36z m876 26 c3 -5 -1 -10 -9 -10 -8 0 -18 5 -21 10 -3
6 1 10 9 10 8 0 18 -4 21 -10z m-5911 -94 c15 -43 25 -81 22 -83 -4 -4 -56
148 -56 164 0 16 10 -8 34 -81z m4411 54 c33 -31 32 -58 -5 -108 -50 -70 -94
-80 -141 -33 -34 35 -39 88 -13 141 16 32 17 32 75 28 44 -3 65 -10 84 -28z
m1389 8 c-4 -13 -6 -40 -6 -60 1 -26 -2 -38 -12 -38 -15 0 -26 30 -26 76 0 36
6 44 32 44 16 0 18 -5 12 -22z m943 0 c-3 -8 -6 -5 -6 6 -1 11 2 17 5 13 3 -3
4 -12 1 -19z m-2601 -18 c-33 -17 -65 -35 -73 -41 -7 -6 -13 -8 -13 -3 0 9 41
39 85 62 11 6 29 11 40 12 11 0 -6 -14 -39 -30z m2471 14 c99 -43 143 -68 140
-78 -5 -15 -167 -21 -167 -6 0 6 -10 10 -22 8 -38 -5 -67 76 -30 85 31 8 41 7
79 -9z m-657 -28 c0 -17 -31 -42 -50 -42 -9 1 -16 13 -18 30 -3 25 -1 28 17
23 12 -3 24 -1 27 4 7 12 24 2 24 -15z m810 4 c0 -5 -2 -10 -4 -10 -3 0 -8 5
-11 10 -3 6 -1 10 4 10 6 0 11 -4 11 -10z m-2580 -49 c0 -20 -287 -213 -373
-251 -119 -53 -350 -75 -512 -50 -154 24 -246 41 -314 60 -79 22 -228 87 -219
95 3 3 49 -11 104 -31 91 -33 298 -85 397 -99 23 -4 45 -9 49 -11 12 -8 239
-7 283 1 148 25 225 63 489 241 81 55 96 62 96 45z m1370 -49 c0 -46 -11 -65
-33 -56 -22 8 -23 62 -2 70 8 4 15 13 15 21 0 8 5 11 10 8 6 -3 10 -23 10 -43z
m-3845 -23 c-5 -15 -4 -19 4 -15 6 4 11 0 11 -8 0 -9 4 -16 9 -16 13 0 34 -67
25 -81 -4 -7 -3 -9 3 -6 15 9 24 -19 17 -49 -4 -15 -2 -24 5 -24 11 0 34 -43
35 -65 1 -5 7 -16 14 -24 8 -8 11 -22 9 -33 -3 -10 -1 -16 3 -13 11 7 23 -31
15 -45 -12 -19 -23 -10 -30 23 -3 17 -10 41 -15 52 -70 157 -84 193 -94 241
-1 7 -8 19 -15 28 -11 13 -7 56 5 56 3 0 2 -10 -1 -21z m2928 -89 c2 -42 -1
-54 -12 -52 -7 2 -24 -7 -36 -18 -17 -16 -33 -21 -61 -18 -56 4 -46 22 16 31
30 4 58 13 62 20 4 6 8 41 8 77 1 54 3 61 11 40 6 -14 11 -50 12 -80z m787 90
c0 -13 -28 -25 -38 -16 -3 4 0 11 8 16 20 13 30 12 30 0z m2240 1 c0 -8 -74
-31 -101 -31 -27 0 8 19 45 24 22 4 42 9 45 11 7 7 11 6 11 -4z m-210 -41 c0
-5 -7 -6 -17 -3 -12 5 -14 3 -8 -8 4 -8 5 -11 0 -7 -4 4 -14 3 -20 -2 -7 -6
-20 -7 -30 -4 -15 6 -13 9 11 20 35 15 64 17 64 4z m-136 -14 c-4 -11 0 -13
15 -9 15 4 21 1 21 -10 0 -18 -80 -35 -100 -22 -7 4 -15 3 -19 -2 -3 -5 -33
-17 -66 -25 -33 -9 -91 -28 -130 -43 -38 -15 -149 -44 -245 -66 -188 -41 -219
-50 -350 -99 -47 -17 -128 -47 -180 -65 -52 -18 -117 -43 -145 -55 -27 -12
-120 -46 -205 -75 -85 -29 -189 -69 -230 -89 -41 -20 -80 -36 -87 -36 -7 0
-27 -6 -45 -14 -18 -8 -67 -27 -108 -42 -41 -15 -89 -38 -106 -51 -38 -29 -70
-30 -77 -3 -7 27 44 53 212 110 68 23 144 52 170 65 84 41 139 63 301 119 25
8 106 38 180 66 74 28 146 55 160 60 27 9 90 34 188 73 82 34 219 72 312 87
41 7 125 28 185 45 210 62 230 67 258 67 15 0 27 4 27 9 0 6 8 5 21 -1 11 -7
23 -9 27 -6 3 3 -1 6 -9 7 -11 0 5 11 28 18 1 1 0 -5 -3 -13z m-1910 -17 c83
-44 379 -50 504 -10 62 19 63 19 47 1 -36 -40 -110 -55 -260 -54 -223 2 -345
27 -345 69 0 20 8 19 54 -6z m-464 -140 c0 -6 -25 -19 -36 -19 -2 0 -4 11 -4
25 0 23 2 24 20 13 11 -7 20 -16 20 -19z m61 -17 c-15 -28 -24 -137 -13 -158
14 -27 24 -94 15 -94 -5 0 -22 25 -37 56 -26 51 -27 58 -12 66 12 7 16 24 16
66 0 53 11 82 32 82 5 0 4 -8 -1 -18z m-86 -100 c-8 -8 -26 39 -19 50 5 8 11
1 16 -17 4 -16 6 -31 3 -33z m-4315 -31 c16 -31 12 -51 -12 -60 -46 -19 -336
-81 -418 -90 -47 -5 -117 -22 -155 -36 -39 -15 -99 -38 -135 -50 -36 -13 -87
-35 -115 -50 -41 -22 -47 -24 -32 -7 19 21 248 142 314 166 392 143 527 174
553 127z m6015 -13 c-18 -11 -174 -72 -305 -119 -30 -11 -121 -47 -203 -80
-81 -33 -180 -71 -220 -85 -39 -14 -95 -36 -124 -49 -28 -13 -84 -34 -125 -46
-40 -12 -90 -30 -110 -41 -21 -10 -38 -16 -38 -14 0 3 -43 -13 -96 -34 -54
-22 -91 -33 -84 -25 7 8 21 15 30 15 10 0 20 4 22 8 4 11 93 52 188 87 41 15
134 51 205 80 72 29 157 61 190 70 33 9 89 30 125 47 36 16 72 31 80 33 8 3
103 36 210 76 107 39 206 73 220 76 13 2 27 6 29 9 2 2 9 4 15 4 6 0 2 -6 -9
-12z m-4752 -35 c-5 -12 -3 -14 7 -8 8 5 11 4 6 -3 -3 -6 -2 -13 3 -17 6 -3 8
-12 5 -19 -3 -7 2 -19 11 -26 19 -16 19 -27 0 -27 -9 0 -18 12 -21 26 -3 14
-10 36 -16 48 -6 11 -7 26 -4 32 11 17 16 13 9 -6z m2341 11 c30 -12 17 -27
-18 -21 -32 5 -35 3 -45 -25 -22 -62 -5 -92 38 -69 28 15 35 -2 12 -30 l-20
-24 -31 31 c-31 30 -31 32 -20 75 16 58 43 79 84 63z m306 -16 c0 -21 -26 -58
-41 -58 -9 0 -4 21 14 58 13 28 27 28 27 0z m-170 -7 c13 -25 13 -88 0 -96 -5
-3 -10 -1 -10 5 0 6 -12 29 -26 52 -21 32 -23 42 -12 49 21 14 37 10 48 -10z
m-319 -127 c3 -21 9 -54 13 -71 8 -36 1 -40 -29 -18 -14 11 -20 29 -21 67 -2
29 0 56 3 60 11 19 28 -1 34 -38z m-2113 -5 c-3 -8 -7 -3 -11 10 -4 17 -3 21
5 13 5 -5 8 -16 6 -23z m343 -32 c16 -34 29 -70 29 -79 0 -9 5 -20 10 -23 6
-3 10 -17 10 -30 0 -13 5 -35 11 -49 9 -19 8 -29 -5 -47 -9 -13 -16 -20 -16
-16 0 4 0 9 0 12 0 3 -7 19 -16 36 -8 17 -14 40 -11 50 3 11 2 17 -3 14 -11
-7 -53 94 -46 111 3 9 1 12 -4 9 -6 -3 -15 6 -20 20 -15 39 -12 51 11 52 16 2
27 -12 50 -60z m-1857 13 c-65 -23 -122 -35 -111 -24 14 15 100 42 132 42 26
1 23 -2 -21 -18z m3961 -10 c-37 -71 -108 -131 -157 -130 -18 1 -12 6 24 25
26 14 60 41 75 61 57 75 85 96 58 44z m-3881 3 c4 -4 -8 -13 -26 -20 l-33 -13
43 4 c51 5 50 1 -4 -18 l-39 -14 55 5 c61 6 63 0 4 -21 l-39 -15 50 5 c47 5
49 4 31 -10 -19 -15 -19 -16 -2 -16 15 0 16 -3 6 -15 -10 -12 -10 -15 4 -15
30 0 16 -18 -21 -29 l-38 -10 48 5 c57 6 63 -9 10 -25 -37 -10 -37 -10 12 -5
55 6 54 -4 -3 -23 l-37 -12 38 5 c62 8 68 -9 7 -23 l-55 -12 53 5 c63 7 72
-11 10 -21 -24 -4 -50 -11 -58 -17 -12 -7 -11 -8 5 -4 51 13 115 17 115 9 0
-5 -21 -16 -47 -25 l-48 -16 59 6 c65 6 73 -12 11 -24 -54 -10 -50 -22 5 -16
57 5 65 -4 18 -21 l-33 -12 40 -6 c39 -5 39 -6 15 -17 -24 -10 -24 -11 -2 -11
26 -1 30 -20 5 -22 -10 -1 -4 -5 12 -9 l30 -8 -25 -8 -25 -8 30 -7 30 -6 -25
-11 -25 -11 24 0 c20 -1 21 -3 11 -16 -10 -13 -9 -15 11 -15 22 0 22 0 3 -15
-18 -14 -18 -14 6 -15 23 -1 23 -2 5 -10 -18 -7 -17 -8 10 -16 l30 -8 -25 -7
c-24 -7 -24 -7 -2 -8 24 -1 31 -21 7 -21 -8 0 -15 -4 -15 -10 0 -5 11 -10 24
-10 13 0 26 -5 28 -12 3 -9 20 -9 74 0 130 22 148 20 164 -18 7 -17 11 -32 9
-34 -8 -7 -220 -55 -334 -76 -66 -12 -135 -29 -154 -36 -18 -8 -40 -14 -47
-14 -7 0 -37 -11 -66 -24 -53 -24 -158 -40 -158 -25 0 15 47 40 138 74 49 19
108 44 131 55 40 21 54 40 29 40 -7 0 3 11 22 25 l34 25 -32 -6 c-41 -8 -41 8
1 29 l32 18 -42 -5 c-51 -5 -56 9 -10 29 l32 14 -47 -6 c-27 -3 -48 -3 -48 1
0 4 19 15 42 26 l42 19 -49 3 c-49 4 -49 4 -17 12 43 11 52 28 11 19 -22 -4
-30 -3 -25 5 4 6 23 14 42 18 19 3 33 9 30 11 -3 3 -26 0 -52 -6 -55 -14 -67
-9 -27 13 l28 15 -35 -5 -35 -5 25 15 25 15 -25 1 c-22 1 -20 4 15 20 43 20
32 25 -27 11 -21 -5 -38 -7 -38 -5 0 2 21 15 48 29 26 15 39 24 29 21 -11 -4
-31 -9 -45 -12 l-27 -6 25 22 25 21 -25 -7 c-14 -4 -31 -9 -37 -11 -7 -3 -13
-2 -13 1 0 4 19 16 43 27 l42 20 -57 -6 c-32 -4 -58 -4 -58 -1 0 3 21 12 48
21 l47 15 -50 -5 c-42 -5 -47 -4 -30 7 11 7 40 18 65 25 l45 13 -40 -5 c-22
-2 -56 -7 -75 -10 l-35 -6 35 20 c19 11 28 21 20 21 -8 1 -1 8 15 16 l30 15
-27 -6 c-16 -3 -40 -8 -55 -11 -40 -9 -17 12 32 30 33 12 36 15 15 15 -14 1
-40 -3 -58 -8 -37 -11 -43 1 -9 17 21 10 21 11 2 12 -15 1 -9 7 20 21 31 16
34 19 13 15 -79 -17 -82 -16 -33 9 l50 25 -60 -6 c-65 -7 -68 6 -5 24 l35 10
-49 1 -49 1 25 19 c27 22 132 60 164 61 11 0 24 -3 28 -7z m1453 -23 c6 -16 8
-30 4 -30 -3 0 -12 14 -18 30 -6 17 -8 30 -4 30 3 0 12 -13 18 -30z m863 -62
c-19 -6 -65 -19 -103 -31 -37 -11 -71 -17 -74 -13 -10 9 19 27 34 21 7 -2 15
1 19 7 4 7 3 8 -4 4 -7 -4 -12 -3 -12 3 0 9 31 12 155 18 11 1 4 -4 -15 -9z
m-800 -63 c7 -8 10 -22 6 -30 -3 -8 -2 -15 3 -15 5 0 11 -9 14 -21 4 -14 1
-19 -10 -17 -12 3 -42 65 -43 91 0 12 17 8 30 -8z m3167 -30 c30 -21 46 -81
30 -114 -16 -34 -59 -49 -91 -31 -54 28 -58 121 -6 147 32 16 41 16 67 -2z
m-2146 -24 c50 -19 89 -46 89 -62 0 -4 -19 3 -42 16 -97 53 -247 57 -361 10
-34 -14 -69 -29 -77 -32 -25 -10 22 37 52 53 74 38 256 46 339 15z m-161 -56
c0 -1 -12 -2 -26 -2 -17 0 -22 2 -13 7 10 7 39 3 39 -5z m-481 -31 c14 -31 14
-45 0 -81 l-11 -28 -23 45 c-35 70 -39 88 -18 92 27 6 39 0 52 -28z m633 22
c5 -7 8 -6 8 3 0 12 2 12 13 -1 18 -23 67 -52 67 -40 0 6 9 8 20 5 13 -4 35
-35 63 -91 40 -81 42 -91 42 -171 0 -73 -5 -95 -28 -146 -59 -129 -198 -228
-322 -229 -84 0 -204 38 -255 81 -43 37 -100 143 -100 187 0 14 -4 26 -10 26
-22 0 -4 143 26 205 18 39 81 115 95 115 6 0 7 -6 4 -12 -4 -7 -1 -6 7 3 15
18 118 71 118 61 0 -4 -17 -16 -37 -27 -21 -10 -50 -30 -65 -44 -16 -14 -28
-19 -28 -13 0 23 -18 11 -46 -30 -33 -49 -52 -94 -53 -123 l0 -20 9 20 c8 19
9 19 9 -2 1 -13 -4 -23 -10 -23 -5 0 -7 -5 -3 -12 4 -6 8 -35 10 -64 3 -67 45
-161 92 -207 59 -57 123 -81 217 -82 86 0 140 17 202 63 18 13 37 20 44 16 7
-4 10 -2 7 6 -2 8 3 21 13 31 26 26 60 128 66 199 7 89 -21 163 -88 230 -28
28 -55 50 -60 50 -6 0 -25 6 -42 14 -18 7 -48 18 -67 24 -34 9 -33 10 20 9 30
-1 58 -6 62 -11z m1968 -25 c15 -29 12 -41 -11 -41 -37 0 -200 -51 -429 -134
-139 -51 -133 -49 -126 -37 9 14 -23 6 -37 -9 -10 -12 -9 -12 6 -1 11 9 17 10
17 2 0 -11 -12 -15 -42 -12 -10 1 -18 -2 -18 -7 0 -6 -7 -12 -14 -15 -12 -5
-13 -1 -7 16 5 12 16 21 25 21 9 -1 14 2 11 6 -3 4 21 18 53 30 31 13 71 29
87 36 17 7 68 24 115 39 47 14 94 31 105 37 18 10 232 86 247 87 4 1 12 -8 18
-18z m-2920 -54 c0 -5 -4 -5 -10 -2 -5 3 -10 14 -10 23 0 15 2 15 10 2 5 -8
10 -19 10 -23z m153 14 c-2 -6 1 -11 7 -11 13 0 46 -67 54 -110 4 -19 14 -53
23 -75 28 -73 51 -129 77 -191 42 -99 73 -203 65 -216 -5 -8 -17 9 -34 47 -15
33 -31 69 -36 80 -5 11 -24 63 -43 115 -19 52 -47 127 -61 165 -15 39 -31 86
-37 105 -5 19 -16 49 -24 67 -17 38 -18 46 -1 40 6 -2 11 -10 10 -16z m1445
-43 c4 -23 -46 -57 -58 -39 -5 9 -18 11 -41 6 -31 -7 -32 -6 -16 9 44 44 109
58 115 24z m-1578 -3 c1 28 22 -32 25 -73 l4 -47 -25 50 c-24 50 -35 107 -14
75 5 -8 10 -10 10 -5z m840 5 c0 -5 6 -10 14 -10 17 0 15 -32 -2 -38 -7 -2
-12 -14 -12 -26 0 -12 -7 -31 -15 -42 -8 -12 -19 -61 -25 -110 -6 -48 -15 -93
-19 -99 -15 -19 -19 -54 -7 -70 11 -15 14 -14 39 5 20 16 27 18 27 7 0 -27
-25 -37 -79 -30 -28 3 -54 9 -56 14 -3 4 5 19 19 34 13 14 26 36 29 48 3 12
15 58 27 102 38 142 40 149 40 188 0 20 5 37 10 37 6 0 10 -4 10 -10z m-63
-22 c-3 -8 -6 -5 -6 6 -1 11 2 17 5 13 3 -3 4 -12 1 -19z m-53 -17 c7 -11 -72
-53 -85 -45 -13 8 8 34 27 34 8 0 14 5 14 10 0 12 37 13 44 1z m796 -22 c0
-12 -63 -69 -77 -69 -6 0 -15 10 -19 22 -7 22 16 48 43 48 7 0 13 4 13 9 0 5
9 7 20 4 11 -3 20 -9 20 -14z m-755 -36 c-4 -27 -11 -52 -16 -58 -9 -9 -7 15
7 83 8 42 16 22 9 -25z m1984 13 c-10 -10 -273 -106 -277 -101 -3 2 4 7 14 11
10 3 34 13 52 21 17 7 51 20 75 28 23 7 60 20 82 29 40 15 62 20 54 12z
m-2699 -71 c0 -8 5 -15 11 -15 5 0 8 -4 5 -9 -4 -5 0 -12 6 -14 10 -4 10 -6 1
-6 -7 -1 -19 13 -28 29 -9 17 -11 30 -5 30 5 0 10 -7 10 -15z m824 -154 c16
-55 8 -92 -12 -55 -14 27 -32 130 -31 178 l1 41 13 -55 c6 -30 19 -80 29 -109z
m1346 150 c0 -12 -29 -41 -40 -41 -19 0 -18 18 1 23 12 3 18 10 14 16 -3 6 1
11 9 11 9 0 16 -4 16 -9z m-82 -40 c-15 -25 -30 -28 -21 -4 5 12 3 14 -7 8 -8
-5 -11 -4 -6 3 4 6 13 9 21 5 8 -3 15 1 15 8 0 7 3 10 6 7 3 -3 -1 -15 -8 -27z
m-1410 -45 c-12 -34 -28 -57 -28 -39 0 6 -10 13 -22 17 -17 4 -20 8 -10 14 7
5 10 16 6 25 -7 19 6 23 23 6 8 -8 13 -5 18 11 5 16 9 19 15 10 4 -7 3 -27 -2
-44z m1729 48 c-15 -15 -154 -74 -174 -74 -12 0 -24 -4 -27 -9 -5 -8 -56 -22
-56 -15 0 8 71 40 155 70 94 33 113 38 102 28z m-2547 -39 c4 3 11 -1 14 -7 3
-7 4 0 1 15 -8 42 9 25 30 -29 15 -39 15 -48 4 -55 -14 -8 -12 -10 13 -13 15
-1 52 -96 38 -96 -6 0 -10 8 -11 18 0 10 -3 12 -6 5 -3 -9 -10 -10 -24 -3 -15
8 -19 7 -19 -4 0 -9 12 -19 27 -22 l27 -7 -24 -9 c-27 -10 -36 -3 -45 34 -6
23 -3 27 24 33 17 4 28 11 25 16 -3 6 -12 8 -20 5 -8 -3 -14 1 -14 9 0 14 -11
19 -37 16 -7 -1 -13 8 -13 20 0 17 3 19 14 10 16 -13 49 -4 40 11 -4 6 -10 5
-15 -3 -4 -7 -11 -10 -15 -6 -4 3 -1 13 6 22 11 13 10 14 -4 9 -10 -4 -18 0
-22 10 -3 9 -10 16 -15 16 -6 0 -5 -9 1 -20 6 -11 7 -20 1 -20 -5 0 -12 11
-15 24 -3 13 -9 32 -13 42 -5 14 -2 13 16 -5 12 -12 26 -19 31 -16z m2145 16
c-3 -6 -11 -8 -17 -5 -6 4 -5 9 3 15 16 10 23 4 14 -10z m-1971 -16 c3 -8 1
-15 -4 -15 -6 0 -10 7 -10 15 0 8 2 15 4 15 2 0 6 -7 10 -15z m2016 11 c0 -2
-7 -6 -15 -10 -8 -3 -15 -1 -15 4 0 6 7 10 15 10 8 0 15 -2 15 -4z m-1137 -47
c18 -25 18 -26 -3 -62 -12 -20 -26 -37 -30 -37 -8 0 -19 109 -12 123 6 13 24
3 45 -24z m1007 27 c0 -3 -13 -14 -29 -25 -24 -17 -29 -18 -27 -5 1 8 9 20 17
25 15 9 39 12 39 5z m-75 -36 c-4 -6 -10 -8 -15 -5 -5 3 -11 -3 -14 -12 -3
-10 -27 -26 -55 -36 -61 -21 -66 -21 -44 2 23 23 64 46 80 43 6 -1 14 2 18 8
3 5 13 10 21 10 8 0 12 -5 9 -10z m-1282 -16 c-4 -13 -26 -11 -30 3 -2 6 4 10
14 9 10 -2 17 -7 16 -12z m1567 -9 c-13 -12 -40 -21 -73 -24 -5 -1 -5 -6 -2
-11 4 -6 3 -9 -2 -8 -4 2 -21 -2 -38 -8 -45 -17 -99 -35 -110 -38 -5 -2 -17
-5 -25 -8 -50 -17 -88 -28 -96 -28 -20 0 25 21 99 45 42 14 101 36 130 49 93
43 141 56 117 31z m-1480 0 c0 -12 -57 -55 -72 -55 -32 0 -19 20 25 40 50 22
47 21 47 15z m1820 -15 c0 -5 -5 -10 -11 -10 -5 0 -7 5 -4 10 3 6 8 10 11 10
2 0 4 -4 4 -10z m-782 -27 c-2 -11 -12 -18 -26 -18 -12 0 -26 -6 -31 -14 -5
-7 -13 -11 -18 -8 -5 3 -22 -1 -37 -9 -34 -17 -36 -17 -36 -4 0 6 7 10 15 10
8 0 15 5 15 11 0 5 5 7 11 3 6 -3 15 0 20 7 7 12 9 11 9 -1 1 -13 2 -13 13 1
13 16 46 38 60 39 5 0 7 -8 5 -17z m742 7 c0 -5 -2 -10 -4 -10 -3 0 -8 5 -11
10 -3 6 -1 10 4 10 6 0 11 -4 11 -10z m-2550 -16 c0 -8 -4 -12 -10 -9 -5 3
-10 10 -10 16 0 5 5 9 10 9 6 0 10 -7 10 -16z m207 -15 c2 -21 1 -21 -12 -3
-18 24 -19 35 -2 28 7 -2 13 -14 14 -25z m2198 -19 c-3 -5 -11 -10 -16 -10 -6
0 -7 5 -4 10 3 6 11 10 16 10 6 0 7 -4 4 -10z m-110 -40 c-3 -5 -14 -10 -23
-9 -14 0 -13 2 3 9 27 11 27 11 20 0z m-2052 -45 c2 -11 11 -38 20 -59 10 -22
15 -41 13 -43 -5 -6 -44 81 -53 116 -4 19 -2 23 5 16 6 -6 13 -19 15 -30z
m-163 -100 c0 -5 -5 -3 -10 5 -5 8 -10 20 -10 25 0 6 5 3 10 -5 5 -8 10 -19
10 -25z m534 -126 c30 -15 52 -54 36 -64 -6 -4 -10 1 -10 9 0 9 -9 16 -20 16
-11 0 -20 -4 -20 -10 0 -5 -5 -10 -11 -10 -5 0 -7 6 -3 13 6 9 4 9 -8 -1 -9
-7 -22 -11 -29 -10 -8 2 -13 -5 -13 -14 2 -20 -21 -13 -55 18 -19 17 -21 25
-12 41 5 11 8 23 4 26 -12 12 113 0 141 -14z m-1010 -25 c3 -8 2 -12 -4 -9 -6
3 -10 10 -10 16 0 14 7 11 14 -7z m45 -114 c0 -10 -3 -8 -9 5 -12 27 -12 43 0
25 5 -8 9 -22 9 -30z m976 8 c-1 -13 -3 -27 -4 -32 0 -5 -8 -3 -16 4 -8 7 -22
10 -30 6 -9 -3 -13 -2 -10 4 3 6 11 10 16 10 6 0 17 7 25 15 20 20 22 19 19
-7z m-169 -77 c-3 -4 5 -6 17 -4 15 3 30 -4 47 -22 l25 -27 -24 -19 c-28 -23
-43 -25 -35 -4 4 8 10 12 15 9 5 -3 9 5 9 18 -1 20 -2 21 -11 6 -13 -23 -44
-24 -35 -2 6 15 4 15 -11 3 -10 -8 -21 -18 -25 -24 -11 -15 -21 22 -14 50 4
16 13 25 27 25 11 0 18 -4 15 -9z"/>
<path d="M2920 2240 c0 -5 5 -10 11 -10 5 0 7 5 4 10 -3 6 -8 10 -11 10 -2 0
-4 -4 -4 -10z"/>
<path d="M3160 1610 c0 -5 5 -10 11 -10 5 0 7 5 4 10 -3 6 -8 10 -11 10 -2 0
-4 -4 -4 -10z"/>
<path d="M3184 1577 c3 -10 6 -21 6 -24 0 -3 7 0 15 7 8 7 15 18 15 24 0 6 -5
4 -10 -4 -9 -13 -11 -13 -21 0 -9 13 -10 12 -5 -3z"/>
<path d="M3230 1500 c8 -5 20 -10 25 -10 6 0 3 5 -5 10 -8 5 -19 10 -25 10 -5
0 -3 -5 5 -10z"/>
<path d="M6987 1309 c7 -7 15 -10 18 -7 3 3 -2 9 -12 12 -14 6 -15 5 -6 -5z"/>
<path d="M6480 9358 c0 -8 9 -23 20 -33 16 -15 20 -15 20 -3 0 8 -9 23 -20 33
-16 15 -20 15 -20 3z"/>
<path d="M9400 2391 c0 -5 7 -12 16 -15 14 -5 15 -4 4 9 -14 17 -20 19 -20 6z"/>
<path d="M6145 8950 c-3 -5 3 -18 15 -30 11 -11 20 -17 20 -12 0 4 3 17 6 30
5 17 2 22 -14 22 -12 0 -23 -4 -27 -10z"/>
<path d="M6087 8923 c-12 -11 -8 -23 8 -23 8 0 23 -21 35 -46 22 -51 27 -124
8 -124 -7 0 -5 -5 4 -12 9 -7 19 -24 22 -38 3 -14 3 16 2 66 -4 119 -46 211
-79 177z"/>
<path d="M6309 8893 c-12 -16 -12 -17 1 -7 8 7 24 14 35 17 19 4 19 5 -1 6
-12 0 -28 -7 -35 -16z"/>
<path d="M6310 8863 c0 -30 14 -43 44 -42 17 0 24 3 16 6 -8 3 -25 15 -37 26
-13 11 -23 16 -23 10z"/>
<path d="M6277 8713 c-4 -3 -7 -12 -7 -20 0 -11 5 -11 20 -3 11 6 20 15 20 20
0 11 -23 13 -33 3z"/>
<path d="M6550 8425 c-14 -8 -20 -14 -14 -15 5 0 19 7 30 15 24 18 16 19 -16
0z"/>
<path d="M3856 8363 c-10 -10 -7 -38 6 -51 9 -9 14 -7 24 6 8 9 14 20 14 24 0
11 -36 28 -44 21z"/>
<path d="M5808 7727 c-23 -18 -28 -71 -6 -75 12 -2 20 7 27 35 16 58 13 65
-21 40z"/>
<path d="M1735 7495 c-61 -23 -140 -97 -172 -163 -36 -74 -36 -152 -1 -232 34
-76 68 -113 135 -146 49 -24 70 -28 138 -28 92 0 158 24 213 77 72 69 109 191
82 273 -26 80 -109 175 -178 206 -57 26 -165 32 -217 13z m136 -72 c9 -8 20
-13 25 -12 28 7 114 -51 114 -76 0 -6 -19 -17 -42 -25 -33 -12 -44 -21 -46
-40 -3 -20 -1 -23 9 -12 15 14 69 16 69 2 0 -5 -4 -10 -8 -10 -5 0 -9 -6 -9
-12 0 -7 -8 -31 -17 -53 l-18 -40 -22 50 c-13 28 -29 57 -37 65 -20 21 -40 70
-34 81 4 5 13 9 21 9 8 0 14 7 14 16 0 13 -6 15 -27 9 -16 -4 -42 -8 -60 -10
-37 -4 -78 -23 -53 -26 8 -1 18 -1 23 0 4 1 27 -19 52 -43 65 -66 130 -206 95
-206 -5 0 -15 10 -21 23 -30 58 -124 170 -154 184 -31 15 -36 15 -59 -1 -14
-9 -26 -25 -26 -36 0 -27 17 -34 23 -9 4 16 12 20 34 17 22 -2 38 -17 73 -70
25 -37 55 -77 68 -91 31 -32 28 -39 -15 -36 -21 2 -50 -3 -66 -11 -23 -11 -31
-11 -52 0 -32 17 -27 33 14 41 44 9 48 16 23 41 l-22 22 -29 -34 c-16 -19 -31
-33 -33 -30 -81 106 -78 152 19 246 32 31 72 62 90 70 17 7 35 18 38 24 7 11
19 6 46 -17z m149 -262 c-3 -27 -3 -48 2 -45 4 3 8 14 8 25 0 10 7 19 15 19
21 0 19 -10 -14 -62 -38 -60 -61 -74 -144 -89 -60 -11 -69 -11 -84 4 -16 16
-15 17 19 17 20 0 40 4 43 10 3 5 19 7 35 3 30 -5 31 -4 73 85 23 49 45 88 48
86 3 -1 3 -26 -1 -53z"/>
<path d="M1670 7196 c0 -26 29 -44 41 -24 10 16 -8 48 -26 48 -9 0 -15 -10
-15 -24z"/>
<path d="M1234 7408 c-2 -4 -1 -9 4 -12 10 -6 52 4 52 13 0 8 -51 8 -56 -1z"/>
<path d="M6523 7313 l-23 -4 31 -60 c16 -33 52 -117 80 -187 67 -170 130 -320
143 -338 9 -12 20 -6 60 35 55 56 68 100 54 179 -13 73 -84 240 -122 286 -58
72 -142 105 -223 89z"/>
<path d="M6095 6868 c7 -29 38 -156 69 -282 31 -127 58 -231 59 -232 4 -4 151
17 156 21 2 2 -6 19 -17 37 -33 55 -186 337 -231 426 -23 45 -43 82 -45 82 -2
0 2 -24 9 -52z"/>
<path d="M6305 6243 c-50 -5 -64 -18 -36 -33 15 -7 52 -9 116 -4 88 6 94 8 84
25 -10 19 -55 23 -164 12z"/>
<path d="M4687 6644 c-6 -6 1 -26 96 -269 175 -447 227 -582 301 -777 21 -54
41 -98 44 -98 18 1 89 60 110 90 32 47 26 99 -31 265 -41 120 -67 191 -160
430 -84 219 -138 305 -218 346 -36 18 -128 27 -142 13z"/>
<path d="M3759 6280 c-15 -9 -11 -24 33 -142 54 -147 149 -391 154 -397 2 -2
23 13 48 32 64 53 90 112 84 190 -10 117 -95 274 -169 312 -31 17 -125 20
-150 5z"/>
<path d="M6015 5242 c-57 -19 -68 -44 -37 -82 l18 -23 60 29 c62 31 75 51 49
78 -20 20 -27 20 -90 -2z"/>
<path d="M7081 5140 c-24 -21 -23 -46 3 -56 24 -9 86 23 86 45 0 11 -5 23 -12
27 -6 4 -9 3 -6 -2 11 -17 -11 -54 -32 -54 -25 0 -37 25 -20 45 17 20 10 18
-19 -5z"/>
<path d="M7535 5140 c-23 -26 -11 -39 14 -16 25 23 52 17 68 -14 12 -24 13
-24 13 -3 0 49 -61 70 -95 33z"/>
<path d="M5514 5066 c-53 -24 -74 -54 -74 -109 0 -40 5 -53 29 -78 72 -72 221
1 197 96 -9 35 -65 93 -96 99 -14 3 -39 -1 -56 -8z"/>
<path d="M4396 4558 c-3 -13 -6 -37 -6 -55 l0 -32 37 13 c20 7 38 17 40 22 2
5 -12 25 -31 43 -33 32 -33 32 -40 9z"/>
<path d="M6326 4682 c-2 -4 -1 -14 5 -22 7 -12 9 -10 9 8 0 23 -5 28 -14 14z"/>
<path d="M5594 4325 c-114 -25 -261 -90 -360 -161 -149 -105 -247 -255 -289
-442 -29 -126 -31 -184 -9 -329 20 -138 48 -210 122 -320 124 -185 278 -288
506 -338 110 -25 331 -17 431 15 214 68 429 249 516 433 47 102 72 240 66 372
-8 186 -63 340 -170 478 -93 122 -287 244 -454 286 -95 25 -262 27 -359 6z
m560 -237 c33 -44 184 -355 192 -395 6 -28 3 -34 -21 -45 -26 -12 -30 -10 -71
37 -24 28 -58 83 -75 125 -17 41 -39 89 -49 105 -9 17 -28 62 -40 102 -19 59
-21 75 -10 87 20 25 47 19 74 -16z m-191 -180 l40 -32 51 27 c59 32 62 30 96
-58 13 -33 30 -70 38 -82 14 -23 14 -23 -47 -23 -74 0 -81 -11 -58 -79 16 -48
94 -225 113 -255 9 -15 18 -14 115 18 l104 35 17 -22 c25 -31 22 -64 -7 -93
-48 -48 -264 -139 -630 -264 -110 -37 -251 -87 -313 -109 -141 -51 -157 -52
-179 -6 -11 23 -30 41 -57 54 l-41 19 90 27 c50 15 131 45 180 67 124 54 343
135 386 143 34 6 37 10 42 47 5 37 -6 148 -19 193 -24 81 -76 125 -150 125
-41 0 -201 -51 -240 -76 -44 -29 -56 -67 -49 -150 7 -73 7 -74 -19 -84 -30
-11 -34 -41 -11 -96 14 -33 16 -35 50 -28 47 8 46 -11 -1 -31 -47 -19 -64 -19
-64 1 0 33 -23 93 -47 120 -21 26 -23 27 -18 7 7 -25 5 -26 -19 -17 -11 4 -13
11 -6 23 7 14 -1 33 -31 79 l-40 61 -45 -6 c-51 -7 -57 5 -14 29 45 26 35 77
-25 134 -32 30 -33 33 -15 39 11 3 23 17 26 29 3 13 31 41 64 63 l58 41 24
-37 c32 -50 78 -53 189 -10 75 29 187 90 229 125 41 35 137 84 163 84 18 0 45
-13 70 -32z m-695 -110 c2 -10 -13 -27 -40 -45 -62 -42 -74 -45 -100 -23 -20
17 -21 21 -8 30 8 5 22 10 30 10 8 1 31 12 50 25 39 27 63 28 68 3z m119 -644
c-3 -3 -12 -4 -19 -1 -8 3 -5 6 6 6 11 1 17 -2 13 -5z"/>
<path d="M6120 4017 c0 -24 154 -337 165 -337 6 0 -42 105 -102 225 -55 110
-63 124 -63 112z"/>
<path d="M5856 3808 c-47 -66 17 -138 82 -92 29 20 28 59 -3 89 -30 31 -59 32
-79 3z m68 -30 c14 -23 -8 -68 -33 -68 -28 0 -35 34 -15 65 18 28 32 28 48 3z"/>
<path d="M5891 3754 c0 -11 3 -14 6 -6 3 7 2 16 -1 19 -3 4 -6 -2 -5 -13z"/>
<path d="M5310 3569 c0 -5 -4 -7 -10 -4 -6 4 -10 -5 -10 -19 0 -15 6 -26 14
-26 20 0 37 25 30 44 -7 18 -24 22 -24 5z"/>
<path d="M5250 3548 c0 -17 18 -44 24 -37 8 7 -5 49 -15 49 -5 0 -9 -6 -9 -12z"/>
<path d="M5972 3508 c-23 -23 -11 -78 18 -78 23 0 42 23 44 55 1 31 14 32 26
3 10 -23 10 -23 7 2 -2 22 -8 25 -42 28 -23 2 -46 -3 -53 -10z m38 -39 c0 -11
-4 -17 -10 -14 -5 3 -10 15 -10 26 0 11 5 17 10 14 6 -3 10 -15 10 -26z"/>
<path d="M2497 4113 c-4 -3 -7 -15 -7 -25 0 -21 25 -24 33 -4 6 16 -16 40 -26
29z"/>
<path d="M4570 4035 c0 -8 4 -15 10 -15 5 0 7 7 4 15 -4 8 -8 15 -10 15 -2 0
-4 -7 -4 -15z"/>
<path d="M3700 3889 c-6 -11 -10 -30 -8 -42 5 -37 65 -20 89 25 7 13 6 18 -4
18 -8 0 -19 -11 -25 -25 -12 -26 -42 -35 -42 -12 0 7 7 23 16 35 13 20 13 22
0 22 -8 0 -20 -9 -26 -21z"/>
<path d="M3387 3633 c-26 -30 -32 -71 -12 -93 17 -19 19 -19 38 -3 19 17 20
17 14 1 -12 -33 23 -7 48 37 30 50 30 51 8 60 -39 16 -80 15 -96 -2z m76 0 c6
-11 -21 -73 -32 -73 -7 0 -5 36 4 68 5 13 21 16 28 5z"/>
<path d="M6572 2655 c-21 -24 -26 -70 -8 -84 44 -36 112 22 87 75 -12 28 -58
33 -79 9z"/>
<path d="M8260 2262 c0 -5 7 -9 15 -9 8 0 12 4 9 9 -3 4 -9 8 -15 8 -5 0 -9
-4 -9 -8z"/>
<path d="M5710 2357 c-49 -24 -29 -117 24 -117 23 0 76 50 76 71 0 15 -47 59
-62 59 -7 0 -24 -6 -38 -13z"/>
<path d="M1748 1613 c7 -3 16 -2 19 1 4 3 -2 6 -13 5 -11 0 -14 -3 -6 -6z"/>
<path d="M1818 1563 c7 -3 16 -2 19 1 4 3 -2 6 -13 5 -11 0 -14 -3 -6 -6z"/>
<path d="M1788 1493 c7 -3 16 -2 19 1 4 3 -2 6 -13 5 -11 0 -14 -3 -6 -6z"/>
<path d="M1858 1473 c7 -3 16 -2 19 1 4 3 -2 6 -13 5 -11 0 -14 -3 -6 -6z"/>
<path d="M1878 1443 c7 -3 16 -2 19 1 4 3 -2 6 -13 5 -11 0 -14 -3 -6 -6z"/>
<path d="M2018 1153 c7 -3 16 -2 19 1 4 3 -2 6 -13 5 -11 0 -14 -3 -6 -6z"/>
<path d="M2028 1123 c7 -3 16 -2 19 1 4 3 -2 6 -13 5 -11 0 -14 -3 -6 -6z"/>
<path d="M1978 1113 c7 -3 16 -2 19 1 4 3 -2 6 -13 5 -11 0 -14 -3 -6 -6z"/>
<path d="M6525 1431 c-7 -22 10 -61 25 -61 15 0 12 56 -4 69 -11 10 -16 8 -21
-8z"/>
</g>
</svg>
